<?xml version="1.0" encoding="UTF-8"?> <svg xmlns="http://www.w3.org/2000/svg" width="1223" height="1220" viewBox="0 0 1223 1220" fill="none"> <path d="M611.308 1220C948.924 1220 1222.62 946.894 1222.62 610C1222.62 273.106 948.924 0 611.308 0C273.692 0 0 273.106 0 610C0 946.894 273.692 1220 611.308 1220Z" fill="#F2F3F8"></path> <path d="M568.87 1216.93C399.354 1208.19 239.174 1126.45 133.225 992.715L611.357 714.072L1089.44 992.685C959.361 1156.91 772.93 1227.46 568.87 1216.93Z" fill="#A5D7F5"></path> <path d="M781.864 1195.88L565.542 1070.99L383.392 1176.15C279.27 1134.38 189.34 1064.84 122.791 976.726L611.357 694.647L1099.85 976.682C1021.12 1080.97 909.882 1158.81 781.863 1195.88H781.864Z" fill="#A2D9F7"></path> <path d="M1196.25 787.386L1085.5 851.344L957.785 925.112H957.727L848.739 988.04L565.541 824.531L328.158 961.586L276.31 931.643L151.974 859.867L64.3477 809.271L26.2493 787.264L25.9297 786.195L611.357 448.192L1196.65 786.116L1196.25 787.386Z" fill="#A46532"></path> <path fill-rule="evenodd" clip-rule="evenodd" d="M565.919 805.167L328.123 942.388V954.948L565.919 817.727V805.167Z" fill="#B2AD81"></path> <path fill-rule="evenodd" clip-rule="evenodd" d="M565.828 805.329L848.782 968.241V980.8L565.828 817.889V805.329Z" fill="#A7A06C"></path> <path d="M1197.55 767.328L1085.5 832.036L957.785 905.802H957.728L848.74 968.731L565.541 805.223L328.159 942.278L276.311 912.335L151.975 840.558L64.348 789.961L25.1641 767.328L611.357 428.883L1197.55 767.328Z" fill="#557C38"></path> <path fill-rule="evenodd" clip-rule="evenodd" d="M26.043 786.572L328.16 960.196V1071.46L95.7471 937.891C65.9766 891.372 42.3761 840.545 26.0444 786.572H26.043Z" fill="#D1A752"></path> <path fill-rule="evenodd" clip-rule="evenodd" d="M94.791 936.364L328.16 1070.48V1150.71C232.788 1100.88 152.221 1026.68 94.791 936.364Z" fill="#8ECEF2"></path> <path fill-rule="evenodd" clip-rule="evenodd" d="M566.664 823.344L851.772 988.627V1099.89L566.664 934.605V823.344Z" fill="#D1A752"></path> <path fill-rule="evenodd" clip-rule="evenodd" d="M566.664 933.629L851.772 1098.91V1103.81C791.344 1129.64 751.636 1088.44 717.571 1046.99C691.984 1015.87 688.409 1088.12 610.797 980.638C606.91 975.253 598.644 980.031 598.735 967.923L566.666 933.629H566.664Z" fill="#D1A752"></path> <path fill-rule="evenodd" clip-rule="evenodd" d="M566.598 823.34L328.158 960.072V1071.33L566.598 934.602V823.34Z" fill="#D7B56D"></path> <path fill-rule="evenodd" clip-rule="evenodd" d="M566.598 933.624L328.158 1070.35V1150.71C346.422 1160.26 365.223 1168.91 384.512 1176.61L566.598 1072.19V933.624Z" fill="#A5D7F5"></path> <path fill-rule="evenodd" clip-rule="evenodd" d="M1195.09 789.239L849.637 987.573V1098.83L1125.01 940.733C1154.72 894.851 1178.45 844.64 1195.09 791.143V789.239H1195.09Z" fill="#D7B56D"></path> <path fill-rule="evenodd" clip-rule="evenodd" d="M1126.03 939.171L849.637 1097.86V1171.81C963.238 1123.76 1059.68 1042.33 1126.03 939.17V939.171Z" fill="#8ECEF2"></path> <path fill-rule="evenodd" clip-rule="evenodd" d="M328.16 960.196C478.116 874.544 552.988 831.146 552.988 831.146C548.318 851.879 542.491 869.738 535.304 883.572C511.074 930.214 474.906 925.619 430.029 935.678C381.576 946.539 349.86 958.053 335.222 968.887C324.984 976.462 330.708 975.845 315.905 977.491C256.159 984.136 203.494 963.379 157.916 915.219C112.781 867.516 74.1911 840.106 42.139 832.986C36.1619 817.806 30.8064 802.317 26.043 786.572L328.16 960.196Z" fill="#995E2D"></path> <path fill-rule="evenodd" clip-rule="evenodd" d="M328.16 1069.37C326.226 1070.91 324.631 1071.1 315.907 1072.07C268.718 1077.31 238.598 1054.45 176.064 1038.29C138.945 1000.73 106.663 958.402 80.2422 912.294L328.16 1054.77V1069.37Z" fill="#D1A752"></path> <path fill-rule="evenodd" clip-rule="evenodd" d="M328.16 1054.44C478.116 968.793 566.599 933.624 566.599 933.624C517.095 971.701 514.999 995.407 507.815 1009.24C498.177 1027.8 496.05 1011.88 484.705 1013.81C457.697 1018.41 342.141 1057.93 328.158 1069.05V1054.44H328.16Z" fill="#D7B56D"></path> <path fill-rule="evenodd" clip-rule="evenodd" d="M849.637 987.573C795.608 955.642 705.862 902.347 579.424 830.74C617.647 918.321 680.034 960.452 767.558 954.095C781.101 953.111 785.315 964.18 788.834 967.3C794.518 972.34 795.773 972.972 811.947 990.719C822.565 1002.37 835.842 1012.54 851.772 1021.22C875.885 1030.02 895.071 1015.89 909.327 978.84C911.342 966.855 924.65 964.946 949.252 973.112C975.923 979.059 993.902 971.636 1005.51 952.164C1011.75 941.692 1021.32 936.148 1023.98 932.876C1029.97 925.522 1026.43 929.757 1051.73 916.106C1069.66 906.436 1089.71 893.39 1111.79 876.813C1119.25 871.216 1129.23 876.664 1137.15 870.255C1143 865.512 1146.7 849.089 1152.81 843.899C1162.45 835.702 1177.09 821.372 1188.82 810.272C1191.38 802.915 1193.78 795.481 1196.07 787.996L1196.1 787.476C965.124 920.873 849.637 987.573 849.637 987.573Z" fill="#995E2D"></path> <path fill-rule="evenodd" clip-rule="evenodd" d="M546.945 816.721L564.522 805.366L581.597 815.23L581.428 953.286L546.945 961.949V816.721Z" fill="#9DD6E5"></path> <path fill-rule="evenodd" clip-rule="evenodd" d="M549.621 811.973L564.602 807.484L578.748 811.973V969.229H549.621V811.973Z" fill="#A5D7F5"></path> <path fill-rule="evenodd" clip-rule="evenodd" d="M25.1641 767.572L328.159 942.415V954.974L25.1641 780.13V767.572Z" fill="#A7A06C"></path> <path fill-rule="evenodd" clip-rule="evenodd" d="M1197.52 767.206L848.781 968.241V980.8L1197.52 779.765V767.206Z" fill="#B2AD81"></path> <path d="M570.638 816.691V1022.7C570.638 1042.57 554.215 1043.79 554.215 1022.7V816.691H570.638Z" fill="#3B3B3B"></path> <path d="M1017.16 667.75V672.315C1017.16 675.506 1015.05 678.698 1010.84 681.13C1002.4 685.997 988.738 685.997 980.308 681.13C976.093 678.698 973.986 675.508 973.986 672.315V667.75H1017.16H1017.16Z" fill="black"></path> <path d="M980.31 658.939C971.879 663.804 971.879 671.694 980.31 676.562C988.739 681.429 1002.41 681.429 1010.84 676.562C1019.27 671.694 1019.27 663.803 1010.84 658.939C1002.41 654.071 988.739 654.071 980.31 658.939Z" fill="#585858"></path> <path d="M1007.66 667.23L995.574 674.209V543.134L1007.66 536.157V667.23Z" fill="#999999"></path> <path d="M999.189 545.221L1004.05 542.414V665.144L999.189 667.952V545.221Z" fill="#333333"></path> <path d="M1007.66 536.157L995.572 543.134L983.488 536.157L995.572 529.178L1007.66 536.157Z" fill="#585858"></path> <path d="M983.488 667.23L995.572 674.209V543.134L983.488 536.157V667.23Z" fill="#333333"></path> <path d="M981.093 693.558L939.396 669.329C938.813 668.924 938.259 668.491 937.705 668.059L979.4 692.292C979.953 692.72 980.508 693.158 981.093 693.557V693.558Z" fill="black"></path> <path d="M995.234 664.776L953.537 640.547C954.198 640.79 954.858 641.045 955.501 641.336L997.196 665.566C996.552 665.277 995.894 665.022 995.234 664.775V664.776Z" fill="black"></path> <path d="M965.673 707.209L923.977 682.977C923.717 682.188 923.48 681.377 923.252 680.57L964.947 704.803C965.177 705.61 965.414 706.421 965.673 707.209Z" fill="black"></path> <path d="M998.73 646.084L957.035 621.851C957.851 621.641 958.676 621.427 959.499 621.237L1001.2 645.469C1000.37 645.658 999.548 645.874 998.73 646.084Z" fill="black"></path> <path d="M950.849 715.864L909.154 691.632L908.535 689.093L950.229 713.325L950.849 715.864Z" fill="black"></path> <path d="M995.873 630.864L954.178 606.634C955.031 605.978 955.891 605.324 956.738 604.715L998.431 628.946C997.586 629.553 996.726 630.21 995.873 630.864Z" fill="black"></path> <path d="M936.179 724.334L894.482 700.101L893.871 697.559L935.569 721.791L936.179 724.334Z" fill="black"></path> <path d="M943.275 604.555L984.969 628.784C990.347 631.908 993.684 638.544 993.712 647.972C993.764 666.938 980.375 690.127 963.872 699.656L922.176 675.424C938.681 665.894 952.069 642.706 952.016 623.739C951.99 614.314 948.653 607.679 943.275 604.555Z" fill="black"></path> <path d="M948.452 595.247L990.148 619.48C989.881 619.322 989.607 619.182 989.318 619.069L947.623 594.838C947.912 594.951 948.186 595.096 948.452 595.247Z" fill="#999999"></path> <path d="M987.169 621.937L945.473 597.707C946.181 596.748 946.888 595.789 947.622 594.839L989.317 619.07C988.586 620.023 987.876 620.979 987.169 621.938V621.937Z" fill="black"></path> <path d="M921.517 732.797L879.822 708.564L879.209 706.024L920.904 730.256L921.517 732.797Z" fill="black"></path> <path d="M981.436 620.393L939.742 596.163C941.792 596.377 943.718 596.893 945.475 597.707L987.172 621.937C985.413 621.125 983.489 620.611 981.436 620.393Z" fill="black"></path> <path d="M906.854 741.265L865.157 717.031L864.537 714.496L906.232 738.727L906.854 741.265Z" fill="black"></path> <path d="M940.451 592.892C939.943 592.811 939.407 592.824 938.861 592.845L937.242 592.883C936.706 592.872 936.146 592.958 935.579 593.056L933.893 593.315L975.588 617.544L977.274 617.285C977.84 617.192 978.4 617.104 978.937 617.117L980.557 617.074C981.101 617.055 981.64 617.041 982.147 617.124L940.451 592.891V592.892Z" fill="#4D4D4D"></path> <path d="M974.218 620.847L932.521 596.614C932.965 595.515 933.416 594.422 933.891 593.315L975.587 617.544C975.112 618.656 974.662 619.749 974.218 620.848V620.847Z" fill="#333333"></path> <path d="M967.257 623.197L925.561 598.968C927.964 597.866 930.292 597.085 932.523 596.614L974.22 620.846C971.988 621.318 969.661 622.098 967.257 623.196V623.197Z" fill="black"></path> <path d="M892.183 749.732L850.488 725.503L849.875 722.964L891.572 747.19L892.183 749.732Z" fill="black"></path> <path d="M959.445 627.498L917.75 603.269L918.344 600.028L960.042 624.261L959.445 627.498Z" fill="#333333"></path> <path d="M925.168 596.272C923.988 596.894 922.742 597.517 921.615 598.14L918.344 600.028L960.042 624.261L963.31 622.373C964.437 621.749 965.683 621.122 966.863 620.506L925.168 596.272Z" fill="#4D4D4D"></path> <path d="M952.533 631.49L910.836 607.257L917.75 603.269L959.445 627.498L952.533 631.49Z" fill="black"></path> <path d="M877.24 758.178L835.545 733.949C835.392 733.081 835.268 732.169 835.145 731.256L876.838 755.49C876.964 756.403 877.087 757.312 877.24 758.18V758.178Z" fill="black"></path> <path d="M880.429 747.834L838.73 723.602L922.177 675.424L963.874 699.658L880.429 747.834Z" fill="black"></path> <path d="M944.776 635.972L903.078 611.74L903.673 608.501L945.371 632.729L944.776 635.972Z" fill="#333333"></path> <path d="M945.372 632.729L903.674 608.501L910.225 604.718L951.921 628.951L945.372 632.729Z" fill="#4D4D4D"></path> <path d="M937.861 639.961L896.166 615.73L903.078 611.74L944.777 635.972L937.861 639.961Z" fill="black"></path> <path d="M861.955 761.56L820.26 737.328C820.475 736.236 820.724 735.148 820.971 734.056L862.666 758.29C862.419 759.376 862.172 760.47 861.955 761.56Z" fill="black"></path> <path d="M930.708 641.196L889.012 616.966L895.554 613.189L937.253 637.418L930.708 641.196Z" fill="#4D4D4D"></path> <path d="M930.111 644.432L888.416 620.204L889.011 616.965L930.708 641.196L930.111 644.432Z" fill="#333333"></path> <path d="M923.199 648.424L881.504 624.194L888.416 620.204L930.112 644.432L923.199 648.424Z" fill="black"></path> <path d="M859.133 749.908L817.438 725.675C822.884 728.841 830.423 728.402 838.73 723.603L880.428 747.835C872.118 752.634 864.58 753.074 859.133 749.908Z" fill="black"></path> <path d="M915.442 652.907L873.744 628.672L874.348 625.433L916.045 649.663L915.442 652.907Z" fill="#333333"></path> <path d="M916.044 649.663L874.348 625.433L880.89 621.657L922.586 645.885L916.044 649.663Z" fill="#4D4D4D"></path> <path d="M853.945 759.202L812.249 734.969C811.675 734.635 811.14 734.231 810.582 733.866L852.279 758.097C852.837 758.464 853.369 758.864 853.945 759.202Z" fill="#999999"></path> <path d="M908.538 656.89L866.84 632.662L873.745 628.672L915.443 652.907L908.538 656.89Z" fill="black"></path> <path d="M852.277 758.097L810.581 733.866C809.74 733.361 809.064 732.614 808.336 731.928L850.031 756.16C850.76 756.844 851.435 757.592 852.277 758.097Z" fill="#4D4D4D"></path> <path d="M850.031 756.16L808.336 731.928C808.885 730.847 809.442 729.767 809.999 728.707L851.694 752.939C851.136 753.996 850.579 755.079 850.031 756.16Z" fill="black"></path> <path d="M900.78 661.371L859.082 637.137L859.68 633.901L901.374 658.132L900.78 661.371Z" fill="#333333"></path> <path d="M901.373 658.132L859.68 633.901L866.221 630.123L907.916 654.355L901.373 658.132Z" fill="#4D4D4D"></path> <path d="M851.696 752.94L810 728.708C808.648 727.262 807.486 725.56 806.533 723.596L848.231 747.825C849.183 749.788 850.344 751.491 851.696 752.939V752.94Z" fill="black"></path> <path d="M893.866 665.361L852.172 641.133L859.081 637.137L900.78 661.371L893.866 665.361Z" fill="black"></path> <path d="M844.455 746.545C844.167 745.373 843.828 744.236 843.576 743.037L801.881 718.804C802.133 720.005 802.471 721.14 802.762 722.313C803.105 723.428 803.569 724.445 803.974 725.509L845.668 749.738C845.264 748.679 844.8 747.662 844.455 746.547V746.545Z" fill="#4D4D4D"></path> <path d="M843.576 743.037L801.881 718.804C802.664 717.919 803.451 717.066 804.24 716.196L845.937 740.428C845.146 741.293 844.361 742.148 843.576 743.037Z" fill="#333333"></path> <path d="M886.711 666.6L845.018 642.367L851.559 638.589L893.256 662.822L886.711 666.6Z" fill="#4D4D4D"></path> <path d="M886.113 669.837L844.418 645.605L845.016 642.367L886.71 666.6L886.113 669.837Z" fill="#333333"></path> <path d="M880.214 673.245L838.518 649.013L844.418 645.605L886.113 669.837L880.214 673.245Z" fill="black"></path> <path d="M880.214 673.245L838.518 649.013L844.418 645.605L886.113 669.837L880.214 673.245Z" fill="black"></path> <path d="M845.937 740.428L804.241 716.196C803.865 714.092 803.662 711.828 803.654 709.4C803.654 709.049 803.666 708.713 803.675 708.37L845.37 732.6C845.363 732.943 845.348 733.28 845.351 733.629C845.357 736.056 845.56 738.32 845.937 740.427V740.428Z" fill="black"></path> <path d="M879.158 673.88L837.463 649.651C837.809 649.44 838.165 649.218 838.519 649.015L880.216 673.247C879.862 673.452 879.506 673.671 879.158 673.882V673.88Z" fill="black"></path> <path d="M802.163 700.26C801.82 701.779 801.711 703.218 801.518 704.694C801.294 706.18 801.267 707.576 801.213 708.983L842.908 733.212C842.964 731.806 842.991 730.408 843.213 728.923C843.406 727.447 843.516 726.01 843.86 724.49L802.163 700.26Z" fill="#4D4D4D"></path> <path d="M843.859 724.491L802.162 700.262C802.591 700.001 803.021 699.749 803.445 699.502C803.872 699.256 804.298 699.014 804.724 698.773L846.42 723.005C845.992 723.247 845.567 723.487 845.142 723.731C844.716 723.979 844.289 724.227 843.859 724.491Z" fill="#333333"></path> <path d="M871.349 679.673L829.654 655.445C829.644 654.467 829.623 653.503 829.644 652.501L871.34 676.732C871.32 677.736 871.337 678.695 871.349 679.673Z" fill="#333333"></path> <path d="M836.737 647.244L834.946 648.39C834.349 648.779 833.761 649.256 833.163 649.698C831.986 650.576 830.792 651.446 829.645 652.502L871.341 676.733C872.489 675.68 873.682 674.807 874.86 673.926C875.457 673.49 876.044 673.011 876.641 672.624L878.432 671.475L836.737 647.246V647.244Z" fill="#4D4D4D"></path> <path d="M846.421 723.005L804.725 698.772C805.314 695.754 806.139 692.706 807.174 689.673L848.868 713.905C847.832 716.938 847.009 719.987 846.421 723.005Z" fill="black"></path> <path d="M864.705 686.39L823.008 662.16C825.111 659.745 827.338 657.478 829.657 655.447L871.352 679.675C869.033 681.709 866.809 683.976 864.705 686.391V686.39Z" fill="black"></path> <path d="M864.705 686.39L823.008 662.16C825.111 659.745 827.338 657.478 829.657 655.447L871.352 679.675C869.033 681.709 866.809 683.976 864.705 686.391V686.39Z" fill="black"></path> <path d="M853.107 703.805L811.412 679.573C812.894 676.607 814.564 673.704 816.396 670.914L858.092 695.145C856.261 697.932 854.589 700.838 853.107 703.805Z" fill="black"></path> <path d="M853.107 703.805L811.412 679.573C812.894 676.607 814.564 673.704 816.396 670.914L858.092 695.145C856.261 697.932 854.589 700.838 853.107 703.805Z" fill="black"></path> <path d="M850.746 703.941L809.049 679.712C809.852 679.639 810.629 679.606 811.41 679.573L853.105 703.806C852.326 703.839 851.547 703.872 850.746 703.941Z" fill="#333333"></path> <path d="M846.905 713.116L805.211 688.883C806.292 685.811 807.584 682.724 809.051 679.712L850.748 703.941C849.279 706.953 847.987 710.042 846.906 713.114L846.905 713.116Z" fill="#4D4D4D"></path> <path d="M858.092 695.145L816.397 670.914C816.017 670.232 815.644 669.55 815.301 668.844L856.998 693.077C857.339 693.782 857.712 694.463 858.092 695.145Z" fill="#333333"></path> <path d="M821.308 660.898C820.765 661.489 820.251 662.141 819.746 662.8L818.208 664.756C817.686 665.396 817.214 666.089 816.731 666.781L815.299 668.846L856.996 693.078L858.426 691.015C858.909 690.318 859.385 689.626 859.905 688.986L861.444 687.029C861.949 686.372 862.46 685.72 863.004 685.129L821.308 660.899V660.898Z" fill="#4D4D4D"></path> <path d="M963.872 699.658L880.425 747.835C863.911 757.37 850.443 749.688 850.388 730.722C850.335 711.745 863.717 688.57 880.229 679.036L963.674 630.857C980.181 621.327 993.656 628.998 993.711 647.975C993.763 666.941 980.374 690.13 963.872 699.659V699.658ZM998.752 645.063C998.743 642.627 998.534 640.366 998.164 638.252C998.955 637.396 999.74 636.535 1000.52 635.654C1000.27 634.449 999.935 633.31 999.636 632.153C999.301 631.029 998.836 630.017 998.431 628.946C997.585 629.553 996.725 630.21 995.872 630.864C994.922 628.892 993.76 627.192 992.408 625.743C992.966 624.687 993.52 623.614 994.071 622.526C993.342 621.848 992.666 621.09 991.817 620.589C991.007 620.051 990.232 619.436 989.316 619.07C988.586 620.023 987.876 620.979 987.169 621.938C985.41 621.126 983.487 620.612 981.433 620.394C981.682 619.304 981.927 618.213 982.145 617.126C981.638 617.042 981.099 617.057 980.555 617.076L978.935 617.119C978.399 617.105 977.838 617.194 977.272 617.287L975.586 617.546C975.112 618.658 974.661 619.751 974.218 620.85C971.986 621.321 969.659 622.102 967.255 623.199C967.137 622.284 967.015 621.374 966.862 620.508C965.683 621.124 964.436 621.751 963.309 622.374L960.041 624.262L959.443 627.5L952.53 631.491L951.918 628.952L945.369 632.73L944.774 635.973L937.859 639.962L937.249 637.42L930.706 641.198L930.108 644.435L923.197 648.427L922.583 645.888L916.042 649.666L915.438 652.91L908.534 656.893L907.913 654.358L901.372 658.135L900.777 661.372L893.864 665.364L893.251 662.825L886.709 666.603L886.111 669.84L880.212 673.247C879.858 673.452 879.502 673.671 879.154 673.882C878.926 673.075 878.689 672.27 878.43 671.475L876.638 672.624C876.042 673.011 875.454 673.492 874.858 673.926C873.679 674.807 872.486 675.68 871.339 676.733C871.318 677.738 871.336 678.697 871.348 679.675C869.029 681.709 866.805 683.976 864.7 686.391C864.147 685.964 863.585 685.533 863.001 685.129C862.457 685.72 861.946 686.372 861.441 687.029L859.902 688.987C859.38 689.626 858.906 690.318 858.423 691.015L856.993 693.078C857.334 693.784 857.707 694.464 858.087 695.146C856.256 697.933 854.584 700.839 853.103 703.807C852.324 703.841 851.544 703.873 850.743 703.943C849.275 706.955 847.983 710.043 846.902 713.116C847.547 713.404 848.204 713.662 848.864 713.907C847.828 716.94 847.005 719.988 846.417 723.006C845.989 723.248 845.564 723.488 845.139 723.733C844.713 723.98 844.286 724.229 843.856 724.493C843.513 726.013 843.402 727.45 843.209 728.926C842.988 730.412 842.96 731.809 842.904 733.215C843.728 733.025 844.544 732.818 845.37 732.601C845.363 732.944 845.348 733.282 845.351 733.631C845.357 736.058 845.56 738.322 845.937 740.428C845.146 741.293 844.361 742.148 843.576 743.037C843.828 744.237 844.167 745.373 844.455 746.545C844.798 747.66 845.264 748.679 845.667 749.737C846.514 749.13 847.369 748.488 848.229 747.825C849.18 749.788 850.341 751.491 851.693 752.939C851.135 753.997 850.578 755.079 850.03 756.16C850.759 756.844 851.434 757.592 852.276 758.097C853.094 758.633 853.86 759.249 854.783 759.614C855.517 758.66 856.222 757.704 856.925 756.751C858.688 757.558 860.613 758.072 862.665 758.29C862.417 759.376 862.17 760.47 861.953 761.56C862.453 761.645 862.999 761.623 863.546 761.609L865.163 761.566C865.693 761.584 866.26 761.491 866.829 761.398L868.515 761.136C868.99 760.027 869.431 758.94 869.884 757.835C872.115 757.361 874.444 756.584 876.837 755.489C876.962 756.402 877.086 757.311 877.239 758.178C878.419 757.561 879.658 756.95 880.791 756.311L884.062 754.422L884.657 751.185L891.569 747.19L892.182 749.732L898.723 745.954L899.329 742.714L906.232 738.727L906.854 741.265L913.395 737.487L913.99 734.249L920.902 730.255L921.517 732.795L928.058 729.019L928.656 725.781L935.568 721.79L936.178 724.332L942.721 720.556L943.325 717.311L950.228 713.324L950.848 715.863L957.391 712.082L957.987 708.844L963.888 705.438C964.243 705.233 964.589 705.016 964.944 704.801C965.174 705.608 965.411 706.42 965.67 707.208L967.461 706.062C968.056 705.672 968.645 705.195 969.235 704.761C970.42 703.878 971.613 703.004 972.761 701.95C972.773 700.953 972.762 699.986 972.743 699.01C975.069 696.977 977.286 694.721 979.399 692.292C979.952 692.72 980.507 693.158 981.092 693.557C981.641 692.965 982.155 692.311 982.659 691.654L984.191 689.704C984.718 689.059 985.192 688.374 985.666 687.676L987.106 685.606C986.762 684.901 986.382 684.223 986.011 683.537C987.842 680.75 989.503 677.85 990.994 674.876C991.775 674.844 992.554 674.81 993.348 674.745C994.822 671.73 996.106 668.653 997.195 665.566C996.551 665.277 995.893 665.022 995.233 664.775C996.263 661.749 997.093 658.698 997.682 655.68C998.171 655.4 998.663 655.123 999.155 654.837C999.516 654.628 999.88 654.417 1000.24 654.198C1000.58 652.676 1000.7 651.234 1000.89 649.757C1001.11 648.272 1001.14 646.883 1001.19 645.468C1000.37 645.656 999.546 645.873 998.728 646.082C998.736 645.739 998.749 645.402 998.749 645.06L998.752 645.063Z" fill="#333333"></path> <path d="M979.051 626.869L979.009 626.955L981.851 628.606L983.687 631.179L982.804 632.459L983.271 633.481L985.274 634.643L986.228 638.147L985.207 639.218L985.53 641.806L986.779 642.532L986.791 646.721L985.69 647.523L985.309 651.177L986.263 651.729L985.334 656.323L984.234 656.787L982.948 661.128L983.773 661.605L981.955 666.289L980.933 666.389L978.778 670.874L979.457 671.5L976.89 675.942L976.009 675.676L973.197 679.793L973.626 680.718L970.474 684.633L969.659 684.16L966.518 687.471L966.672 688.648L963.152 691.764L962.199 691.214L959.208 693.396L959.068 694.743L955.421 696.85L954.183 696.129L951.753 697.163L951.333 698.59L947.806 699.537L945.845 698.4L944.668 698.519L943.994 699.919L940.831 699.65L937.996 698.002L937.55 698.655L934.966 697.183L908.276 681.706L908.589 681.046L905.753 679.396L903.922 676.817L904.798 675.531L904.334 674.524L902.328 673.362L901.375 669.855L902.402 668.771L902.101 666.405L963.675 630.854C969.287 627.613 974.546 626.364 979.051 626.868V626.869Z" fill="#333333"></path> <path d="M962.731 690.824L945.264 680.672L945.683 681.614L963.152 691.764L962.731 690.824Z" fill="black"></path> <path d="M986.265 651.727L968.801 641.576L967.777 641.679L985.245 651.83L986.265 651.727Z" fill="black"></path> <path d="M955.273 695.669L937.809 685.519L937.956 686.697L955.42 696.851L955.273 695.669Z" fill="black"></path> <path d="M986.781 642.53L969.312 632.378L968.215 632.852L985.679 643L986.781 642.53Z" fill="black"></path> <path d="M947.95 698.189L930.483 688.039L930.336 689.39L947.803 699.542L947.95 698.189Z" fill="black"></path> <path d="M985.273 634.643L972.583 627.267C972.016 627.392 971.439 627.541 970.855 627.713L984.173 635.453L985.273 634.643Z" fill="black"></path> <path d="M941.254 698.236L923.785 688.082L914.141 684.177L940.834 699.652L941.254 698.236Z" fill="black"></path> <path d="M981.851 628.606L978.814 626.844C977.862 626.752 976.879 626.735 975.863 626.8L980.829 629.687L981.851 628.606Z" fill="black"></path> <path d="M935.64 695.778L908.949 680.302L908.277 681.707L934.968 697.186L935.64 695.778Z" fill="black"></path> <path d="M933.466 693.797L906.775 678.318L908.949 680.302L935.64 695.778L933.466 693.797Z" fill="#1A1A1A"></path> <path d="M931.493 691.015L904.801 675.533L903.926 676.82L930.616 692.296L931.493 691.015Z" fill="black"></path> <path d="M930.12 688.028L903.43 672.552L904.799 675.533L931.492 691.015L930.12 688.028Z" fill="#1A1A1A"></path> <path d="M929.094 684.251L902.404 668.772L901.377 669.856L928.068 685.328L929.094 684.251Z" fill="black"></path> <path d="M928.616 680.476L903.229 665.756L902.104 666.405L902.404 668.772L929.095 684.251L928.616 680.476Z" fill="#1A1A1A"></path> <path d="M928.601 675.955L907.13 663.504L905.887 664.221L927.501 676.758L928.601 675.955Z" fill="black"></path> <path d="M929.055 671.634L911.089 661.216L907.129 663.503L928.6 675.955L929.055 671.634Z" fill="#1A1A1A"></path> <path d="M930.06 666.694L915.862 658.462L914.912 659.01L928.961 667.156L930.06 666.694Z" fill="black"></path> <path d="M931.406 662.133L920.478 655.796L915.859 658.461L930.057 666.694L931.406 662.133Z" fill="#1A1A1A"></path> <path d="M935.517 652.598L930.776 649.848L925.816 652.713L933.361 657.086L935.517 652.598Z" fill="#1A1A1A"></path> <path d="M936.314 646.653L938.295 647.8L940.874 644.02L936.314 646.653Z" fill="#1A1A1A"></path> <path d="M933.362 657.087L925.817 652.713L925.215 653.061L932.34 657.191L933.362 657.087Z" fill="black"></path> <path d="M938.293 647.801L936.313 646.653L936.098 646.777L937.405 647.536L938.293 647.801Z" fill="black"></path> <path d="M940.874 644.02L938.293 647.801L937.405 647.536L934.839 651.982L935.519 652.598L933.363 657.088L932.341 657.192L930.531 661.87L931.41 662.134L930.062 666.697L928.962 667.158L928.03 671.753L929.059 671.636L928.604 675.956L927.504 676.758L927.516 680.946L928.616 680.475L929.095 684.25L928.068 685.326L929.021 688.833L930.121 688.025L931.491 691.012L930.615 692.295L932.446 694.871L933.465 693.794L935.639 695.775L934.966 697.183L937.549 698.655L938.431 697.366L941.252 698.233L940.831 699.649L943.993 699.917L944.668 698.518L947.951 698.188L947.804 699.541L951.331 698.588L951.751 697.161L955.271 695.668L955.419 696.85L959.065 694.743L959.205 693.396L962.729 690.823L963.15 691.763L966.67 688.646L966.515 687.469L969.799 684.011L970.472 684.631L973.624 680.716L973.195 679.791L976.007 675.674L976.888 675.941L979.455 671.499L978.776 670.873L980.931 666.388L981.953 666.287L983.771 661.604L982.883 661.338L984.232 656.784L985.332 656.32L986.261 651.726L985.239 651.829L985.688 647.521L986.789 646.72L986.777 642.531L985.677 642.999L985.205 639.217L986.226 638.146L985.272 634.642L984.171 635.452L982.802 632.458L983.685 631.178L981.849 628.604L980.826 629.686L978.654 627.693L979.051 626.868C974.549 626.363 969.286 627.613 963.674 630.854L940.872 644.018L940.874 644.02Z" fill="#333333"></path> <path d="M962.258 636.923C960.742 637.364 959.168 638.041 957.537 638.972C946.592 645.248 937.722 660.627 937.721 673.296C937.725 675.225 937.933 676.985 938.311 678.555C940.463 687.294 948.258 690.218 957.543 684.887C968.478 678.607 977.36 663.246 977.36 650.561C977.355 639.775 970.919 634.406 962.258 636.925V636.923Z" fill="#B3B3B3"></path> <path d="M962.258 636.923C960.742 637.364 959.168 638.041 957.537 638.972C946.592 645.248 937.722 660.627 937.721 673.296C937.725 675.225 937.933 676.985 938.311 678.555C941.425 681.928 946.596 682.325 952.445 678.977C961.978 673.515 969.698 660.137 969.701 649.09C969.698 642.286 966.749 637.957 962.258 636.923Z" fill="#D4EEFF"></path> <path d="M962.258 636.923C960.742 637.364 959.168 638.041 957.537 638.972C946.592 645.248 937.722 660.627 937.721 673.296C937.725 675.225 937.933 676.985 938.311 678.555C941.425 681.928 946.596 682.325 952.445 678.977C961.978 673.515 969.698 660.137 969.701 649.09C969.698 642.286 966.749 637.957 962.258 636.923Z" fill="#E6E6E6"></path> <path d="M954.235 652.467C953.822 652.594 953.394 652.778 952.949 653.027C952.437 653.327 951.942 653.692 951.47 654.124C949.662 655.747 948.248 658.218 947.748 660.593C947.621 661.198 947.558 661.801 947.549 662.38C947.558 662.907 947.611 663.379 947.711 663.814C948.298 666.195 950.426 666.995 952.956 665.541C955.934 663.83 958.352 659.642 958.357 656.188C958.352 653.243 956.598 651.778 954.236 652.466L954.235 652.467Z" fill="#808080"></path> <path d="M951.469 654.124C949.661 655.747 948.247 658.218 947.746 660.593C948.128 661.78 949.253 662.154 950.596 661.384C952.245 660.439 953.582 658.125 953.579 656.212C953.582 654.656 952.696 653.843 951.469 654.124Z" fill="#333333"></path> <path d="M959.44 661.353L959.154 661.477C958.491 661.857 957.955 662.784 957.955 663.555L957.99 663.871C958.122 664.4 958.591 664.58 959.154 664.253C959.815 663.873 960.351 662.945 960.351 662.178C960.351 661.527 959.962 661.201 959.44 661.353Z" fill="black"></path> <path d="M959.44 661.353L959.154 661.477C958.491 661.857 957.955 662.784 957.955 663.555L957.99 663.871C958.122 664.4 958.591 664.58 959.154 664.253C959.815 663.873 960.351 662.945 960.351 662.178C960.351 661.527 959.962 661.201 959.44 661.353Z" fill="black"></path> <path d="M946.51 653.893L946.224 654.017C945.564 654.395 945.025 655.324 945.025 656.092L945.061 656.411C945.192 656.938 945.663 657.115 946.224 656.793C946.885 656.413 947.423 655.482 947.423 654.715C947.423 654.064 947.033 653.738 946.51 653.893Z" fill="black"></path> <path d="M946.51 653.893L946.224 654.017C945.564 654.395 945.025 655.324 945.025 656.092L945.061 656.411C945.192 656.938 945.663 657.115 946.224 656.793C946.885 656.413 947.423 655.482 947.423 654.715C947.423 654.064 947.033 653.738 946.51 653.893Z" fill="black"></path> <path d="M946.758 668.453L946.472 668.576C945.811 668.956 945.273 669.884 945.273 670.651L945.309 670.971C945.441 671.498 945.911 671.676 946.472 671.352C947.133 670.972 947.671 670.042 947.671 669.274C947.671 668.623 947.282 668.298 946.758 668.453Z" fill="black"></path> <path d="M946.758 668.453L946.472 668.576C945.811 668.956 945.273 669.884 945.273 670.651L945.309 670.971C945.441 671.498 945.911 671.676 946.472 671.352C947.133 670.972 947.671 670.042 947.671 669.274C947.671 668.623 947.282 668.298 946.758 668.453Z" fill="black"></path> <path d="M959.055 647.15L958.769 647.272C958.109 647.653 957.57 648.58 957.57 649.349L957.607 649.668C957.735 650.191 958.208 650.372 958.769 650.047C959.432 649.671 959.968 648.739 959.968 647.972C959.968 647.319 959.581 646.995 959.055 647.15Z" fill="black"></path> <path d="M959.055 647.15L958.769 647.272C958.109 647.653 957.57 648.58 957.57 649.349L957.607 649.668C957.735 650.191 958.208 650.372 958.769 650.047C959.432 649.671 959.968 648.739 959.968 647.972C959.968 647.319 959.581 646.995 959.055 647.15Z" fill="black"></path> <path d="M959.119 642.958C960.38 642.958 961.498 643.308 962.427 644.005C964.277 645.388 965.25 648.056 965.169 651.532C964.979 659.631 959.209 669.625 952.308 673.807C949.377 675.586 946.608 676.066 944.507 675.166C942.749 674.409 941.545 672.739 941.02 670.331C940.807 669.33 940.712 668.221 940.737 667.033C940.933 658.924 946.702 648.929 953.598 644.758C954.593 644.155 955.572 643.7 956.512 643.398C957.434 643.102 958.306 642.957 959.12 642.957L959.119 642.958ZM946.777 676.736C948.655 676.736 950.748 676.069 952.891 674.771C960.084 670.413 966.097 660 966.296 651.558C966.385 647.711 965.252 644.708 963.103 643.102C961.266 641.732 958.87 641.462 956.168 642.328C955.145 642.653 954.083 643.148 953.015 643.796C945.826 648.146 939.815 658.558 939.611 667.006C939.585 668.283 939.69 669.482 939.919 670.566C940.523 673.349 941.958 675.293 944.064 676.199C944.895 676.558 945.807 676.736 946.777 676.736Z" fill="#B3B3B3"></path> <path d="M895.662 670.124L899.532 672.368L899.212 673.025L902.053 674.676L903.89 677.25L903.006 678.529L903.473 679.548L905.476 680.713L906.429 684.217L905.41 685.288L905.733 687.876L906.982 688.602L906.993 692.793L905.893 693.592L905.512 697.244L906.468 697.797L905.537 702.392L904.436 702.856L903.151 707.196L903.975 707.675L902.158 712.357L901.136 712.46L898.981 716.941L899.66 717.57L897.094 722.012L896.212 721.744L893.4 725.859L893.828 726.789L890.676 730.701L889.862 730.228L886.72 733.539L886.873 734.716L883.353 737.833L882.402 737.279L879.409 739.466L879.269 740.812L875.622 742.917L874.385 742.197L871.956 743.231L871.534 744.658L868.007 745.611L866.046 744.47L864.87 744.589L864.195 745.988L861.031 745.72L858.196 744.072L857.749 744.726L855.166 743.253L852.279 741.578C851.067 738.552 850.398 734.911 850.385 730.716C850.332 711.739 863.713 688.564 880.226 679.03L895.658 670.12L895.662 670.124Z" fill="#333333"></path> <path d="M882.934 736.896L865.467 726.743L865.887 727.686L883.354 737.835L882.934 736.896Z" fill="black"></path> <path d="M906.468 697.797L889.001 687.649L887.979 687.752L905.444 697.9L906.468 697.797Z" fill="black"></path> <path d="M875.475 741.74L858.01 731.591L858.157 732.767L875.623 742.92L875.475 741.74Z" fill="black"></path> <path d="M906.982 688.602L889.516 678.449L888.416 678.92L905.882 689.07L906.982 688.602Z" fill="black"></path> <path d="M868.155 744.26L850.689 734.112L850.621 734.734C850.653 735.015 850.687 735.293 850.727 735.569L868.007 745.614L868.155 744.26Z" fill="black"></path> <path d="M905.478 680.713L891.448 672.559L890.197 673.281L904.377 681.523L905.478 680.713Z" fill="black"></path> <path d="M861.455 744.304L851.266 738.382C851.436 739.077 851.629 739.749 851.847 740.394L861.034 745.722L861.455 744.305V744.304Z" fill="black"></path> <path d="M902.054 674.675L894.93 670.547L893.496 671.375L901.033 675.756L902.054 674.675Z" fill="black"></path> <path d="M855.841 741.849L851.518 739.343C851.741 740.123 851.996 740.87 852.282 741.582L855.168 743.257L855.841 741.849Z" fill="black"></path> <path d="M896.95 670.892L895.645 670.136L894.098 671.029L896.075 672.176L896.95 670.892Z" fill="black"></path> <path d="M853.669 739.867L851.291 738.488C851.363 738.777 851.438 739.061 851.519 739.341L855.843 741.847L853.671 739.867H853.669Z" fill="#1A1A1A"></path> <path d="M896.075 672.176L894.097 671.029L893.479 671.387L896.075 672.176Z" fill="#1A1A1A"></path> <path d="M851.697 737.084L850.895 736.618C850.971 737.049 851.056 737.47 851.151 737.886L851.697 737.084Z" fill="black"></path> <path d="M850.894 736.617L851.697 737.084L850.623 734.743C850.697 735.383 850.787 736.011 850.894 736.619V736.617Z" fill="#1A1A1A"></path> <path d="M850.623 734.743L851.696 737.084L851.15 737.886C851.262 738.391 851.387 738.881 851.525 739.362L852.649 740.945L853.671 739.868L855.844 741.849L855.171 743.257L857.754 744.73L858.637 743.44L861.457 744.306L861.036 745.723L864.2 745.991L864.874 744.592L868.158 744.262L868.01 745.616L871.538 744.663L871.959 743.235L875.478 741.742L875.625 742.922L879.272 740.817L879.412 739.471L882.935 736.899L883.357 737.837L886.877 734.72L886.724 733.544L890.007 730.085L890.68 730.705L893.832 726.793L893.403 725.864L896.215 721.749L897.097 722.017L899.663 717.574L898.984 716.945L901.139 712.465L902.161 712.362L903.979 707.679L903.092 707.411L904.44 702.86L905.54 702.396L906.471 697.802L905.449 697.905L905.897 693.597L906.997 692.797L906.985 688.606L905.885 689.075L905.413 685.292L906.433 684.223L905.48 680.718L904.379 681.528L903.01 678.533L903.893 677.255L902.057 674.68L901.036 675.761L898.862 673.771L899.535 672.372L896.952 670.895L896.077 672.179L893.48 671.39L880.234 679.037C863.721 688.571 850.34 711.746 850.393 730.723C850.397 732.127 850.477 733.467 850.624 734.745L850.623 734.743Z" fill="#333333"></path> <path d="M882.463 682.995C880.947 683.432 879.373 684.113 877.742 685.043C866.797 691.32 857.927 706.698 857.926 719.367C857.93 721.296 858.138 723.056 858.516 724.627C860.667 733.367 868.463 736.292 877.748 730.959C888.683 724.68 897.565 709.317 897.565 696.634C897.56 685.846 891.124 680.477 882.463 682.996V682.995Z" fill="#B3B3B3"></path> <path d="M882.463 682.995C880.947 683.432 879.373 684.113 877.742 685.043C866.797 691.32 857.927 706.698 857.926 719.367C857.93 721.296 858.138 723.056 858.516 724.627C861.632 728 866.802 728.396 872.651 725.049C882.182 719.582 889.906 706.206 889.906 695.161C889.906 688.358 886.955 684.03 882.463 682.995Z" fill="#D4EEFF"></path> <path d="M882.463 682.995C880.947 683.432 879.373 684.113 877.742 685.043C866.797 691.32 857.927 706.698 857.926 719.367C857.93 721.296 858.138 723.056 858.516 724.627C861.632 728 866.802 728.396 872.651 725.049C882.182 719.582 889.906 706.206 889.906 695.161C889.906 688.358 886.955 684.03 882.463 682.995Z" fill="#E6E6E6"></path> <path d="M874.438 698.538C874.025 698.665 873.597 698.849 873.152 699.098C872.64 699.398 872.145 699.764 871.674 700.195C869.867 701.818 868.451 704.29 867.951 706.664C867.824 707.27 867.762 707.872 867.752 708.451C867.762 708.979 867.815 709.451 867.915 709.884C868.503 712.265 870.629 713.065 873.16 711.614C876.139 709.9 878.555 705.713 878.56 702.255C878.555 699.313 876.801 697.848 874.439 698.537L874.438 698.538Z" fill="#808080"></path> <path d="M871.674 700.195C869.867 701.818 868.452 704.291 867.951 706.665C868.333 707.853 869.458 708.227 870.799 707.456C872.452 706.51 873.787 704.197 873.786 702.285C873.787 700.727 872.902 699.914 871.676 700.195H871.674Z" fill="#333333"></path> <path d="M879.643 707.423L879.357 707.547C878.694 707.927 878.158 708.857 878.158 709.625L878.194 709.941C878.325 710.471 878.794 710.649 879.357 710.323C880.018 709.944 880.554 709.015 880.554 708.248C880.554 707.597 880.165 707.271 879.643 707.423Z" fill="black"></path> <path d="M879.643 707.423L879.357 707.547C878.694 707.927 878.158 708.857 878.158 709.625L878.194 709.941C878.325 710.471 878.794 710.649 879.357 710.323C880.018 709.944 880.554 709.015 880.554 708.248C880.554 707.597 880.165 707.271 879.643 707.423Z" fill="black"></path> <path d="M866.713 699.963L866.427 700.086C865.768 700.465 865.229 701.394 865.229 702.161L865.264 702.481C865.395 703.008 865.865 703.186 866.426 702.862C867.089 702.482 867.625 701.553 867.625 700.784C867.625 700.131 867.234 699.808 866.712 699.963H866.713Z" fill="black"></path> <path d="M866.713 699.963L866.427 700.086C865.768 700.465 865.229 701.394 865.229 702.161L865.264 702.481C865.395 703.008 865.865 703.186 866.426 702.862C867.089 702.482 867.625 701.553 867.625 700.784C867.625 700.131 867.234 699.808 866.712 699.963H866.713Z" fill="black"></path> <path d="M866.96 714.522L866.674 714.646C866.013 715.026 865.477 715.954 865.477 716.721L865.512 717.041C865.643 717.571 866.113 717.746 866.674 717.422C867.335 717.044 867.873 716.113 867.873 715.346C867.873 714.69 867.484 714.369 866.96 714.522Z" fill="black"></path> <path d="M866.96 714.522L866.674 714.646C866.013 715.026 865.477 715.954 865.477 716.721L865.512 717.041C865.643 717.571 866.113 717.746 866.674 717.422C867.335 717.044 867.873 716.113 867.873 715.346C867.873 714.69 867.484 714.369 866.96 714.522Z" fill="black"></path> <path d="M879.26 693.221L878.976 693.345C878.313 693.723 877.775 694.653 877.775 695.418L877.812 695.735C877.94 696.265 878.414 696.443 878.974 696.116C879.634 695.738 880.174 694.809 880.174 694.041C880.174 693.389 879.786 693.065 879.26 693.22V693.221Z" fill="black"></path> <path d="M879.26 693.221L878.976 693.345C878.313 693.723 877.775 694.653 877.775 695.418L877.812 695.735C877.94 696.265 878.414 696.443 878.974 696.116C879.634 695.738 880.174 694.809 880.174 694.041C880.174 693.389 879.786 693.065 879.26 693.22V693.221Z" fill="black"></path> <path d="M879.322 689.031C880.583 689.031 881.702 689.381 882.633 690.076C884.481 691.46 885.454 694.127 885.373 697.605C885.183 705.704 879.412 715.696 872.513 719.879C869.58 721.657 866.812 722.139 864.712 721.237C862.953 720.482 861.748 718.81 861.224 716.402C861.012 715.402 860.915 714.293 860.94 713.104C861.136 704.996 866.904 695.002 873.801 690.829C874.794 690.227 875.774 689.772 876.715 689.47C877.635 689.177 878.509 689.031 879.322 689.031ZM866.98 722.806C868.858 722.806 870.951 722.143 873.096 720.843C880.287 716.483 886.301 706.071 886.499 697.628C886.588 693.781 885.457 690.778 883.306 689.172C881.471 687.802 879.073 687.531 876.372 688.399C875.348 688.724 874.287 689.218 873.22 689.866C866.03 694.215 860.019 704.627 859.815 713.076C859.788 714.356 859.893 715.552 860.122 716.638C860.726 719.418 862.161 721.364 864.267 722.269C865.098 722.628 866.01 722.806 866.98 722.806Z" fill="#B3B3B3"></path> <path d="M660.886 670.957V675.521C660.886 678.713 658.778 681.9 654.564 684.334C646.133 689.2 632.464 689.2 624.036 684.334C619.819 681.9 617.713 678.713 617.713 675.521V670.957H660.886Z" fill="black"></path> <path d="M624.037 662.14C615.607 667.008 615.607 674.903 624.037 679.766C632.466 684.634 646.135 684.634 654.565 679.766C662.994 674.903 662.994 667.008 654.565 662.14C646.134 657.275 632.465 657.275 624.037 662.14Z" fill="#585858"></path> <path d="M651.383 670.435L639.301 677.414V546.341L651.383 539.362V670.435Z" fill="#999999"></path> <path d="M642.916 548.423L647.775 545.619V668.347L642.916 671.151V548.423Z" fill="#333333"></path> <path d="M651.383 539.362L639.301 546.341L627.211 539.362L639.301 532.385L651.383 539.362Z" fill="#585858"></path> <path d="M627.211 670.435L639.301 677.414V546.341L627.211 539.362V670.435Z" fill="#333333"></path> <path d="M805.268 587.594V592.163C805.268 595.352 803.162 598.542 798.947 600.976C790.516 605.843 776.848 605.843 768.419 600.976C764.202 598.542 762.096 595.352 762.096 592.163V587.594H805.267H805.268Z" fill="black"></path> <path d="M768.421 578.785C759.99 583.648 759.99 591.543 768.421 596.406C776.85 601.274 790.516 601.274 798.949 596.406C807.377 591.543 807.377 583.648 798.949 578.785C790.518 573.917 776.85 573.917 768.421 578.785Z" fill="#585858"></path> <path d="M795.767 587.076L783.682 594.051V462.978L795.767 456V587.076Z" fill="#999999"></path> <path d="M787.297 465.065L792.153 462.258V584.99L787.297 587.794V465.065Z" fill="#333333"></path> <path d="M795.768 456L783.683 462.978L771.598 456L783.683 449.024L795.768 456Z" fill="#585858"></path> <path d="M771.598 587.076L783.683 594.051V462.978L771.598 456V587.076Z" fill="#333333"></path> <path d="M693.709 511.122C704.152 505.092 713.613 504.534 720.444 508.505L740.804 520.333C747.521 524.204 751.733 532.548 751.766 544.433C751.832 568.274 735.069 597.318 714.315 609.297C703.211 615.708 693.247 615.881 686.342 611.049C686.754 611.339 687.15 611.663 687.582 611.915L667.223 600.08C660.475 596.164 656.294 587.828 656.262 575.983C656.196 552.141 672.962 523.098 693.711 511.12L693.709 511.122Z" fill="black"></path> <path d="M714.278 596.303C728.793 587.925 740.524 567.63 740.477 550.951C740.428 534.269 728.623 527.543 714.107 535.921C699.593 544.305 687.88 564.611 687.929 581.289C687.975 597.968 699.764 604.684 714.278 596.302V596.303ZM751.765 544.435C751.831 568.275 735.068 597.32 714.315 609.299C693.566 621.28 676.689 611.66 676.621 587.818C676.554 563.974 693.323 534.933 714.072 522.951C734.822 510.97 751.699 520.588 751.766 544.433L751.765 544.435Z" fill="black"></path> <path d="M740.478 550.951C740.525 567.63 728.794 587.925 714.279 596.303C699.765 604.686 687.975 597.969 687.93 581.29C687.881 564.611 699.594 544.305 714.108 535.923C728.624 527.545 740.429 534.27 740.478 550.952V550.951Z" fill="#CCCCCC"></path> <path d="M697.841 584.631C696.657 582.583 696.019 579.85 696.018 576.624C695.987 565.073 704.101 551.019 714.142 545.23C717.015 543.567 719.74 542.772 722.127 542.739C728.173 542.653 732.368 547.341 732.379 555.608C732.409 567.162 724.293 581.216 714.254 587.005C707.028 591.141 700.768 589.943 697.843 584.632L697.841 584.631Z" fill="white"></path> <path d="M693.711 511.122C704.154 505.092 713.614 504.534 720.446 508.505L740.806 520.333C733.973 516.362 724.515 516.921 714.072 522.951C693.323 534.933 676.554 563.974 676.622 587.818C676.656 599.66 680.838 607.995 687.582 611.916L667.223 600.081C660.474 596.165 656.294 587.83 656.262 575.985C656.196 552.143 672.962 523.1 693.711 511.122Z" fill="black"></path> <path d="M697.841 584.631C696.657 582.583 696.019 579.85 696.018 576.624C695.987 565.073 704.101 551.019 714.142 545.23C717.015 543.567 719.74 542.772 722.127 542.74C723.315 544.785 723.951 547.521 723.953 550.745C723.982 562.3 715.868 576.351 705.829 582.137C702.954 583.806 700.266 584.62 697.841 584.632V584.631Z" fill="#B3B3B3"></path> <path d="M761.946 517.874L762.139 518.036C760.414 516.43 758.692 514.823 756.971 513.218C755.805 512.128 754.514 511.226 753.126 510.496L753.755 510.826L728.212 495.98C726.961 495.256 725.623 494.686 724.207 494.272C722.118 493.662 720.014 493.048 717.909 492.431C711.873 490.667 704.307 491.843 696.102 496.583L674.598 508.996C655.194 520.199 639.469 547.123 639.092 568.075L643.673 573.654L669.222 588.503L676.357 589.731L676.753 589.503C681.789 586.595 686.349 580.502 688.253 574.052C692.078 561.145 701.212 548.31 711.896 542.144L733.401 529.731C735.307 528.63 737.16 527.811 738.949 527.231L753.041 535.422L752.642 535.119C754.403 536.334 756.865 536.7 761.205 537.898L760.713 537.701C762.918 538.522 765.72 538.138 768.696 536.424L769.091 536.189C768.895 528.052 766.263 521.778 761.948 517.874H761.946Z" fill="black"></path> <path d="M733.366 518.236C752.772 507.036 768.597 515.741 769.09 536.189L768.695 536.424C763.659 539.327 759.082 538.512 757.143 534.278C753.258 525.822 744.083 523.562 733.4 529.732L711.895 542.146C701.211 548.312 692.079 561.145 688.252 574.054C686.348 580.504 681.789 586.597 676.752 589.505L676.355 589.733C676.731 568.781 692.456 541.857 711.863 530.654L733.365 518.238L733.366 518.236Z" fill="#333333"></path> <path d="M756.968 513.218C750.201 506.898 739.512 506.462 727.502 513.396L705.996 525.811C685.911 537.406 669.636 565.272 669.219 588.503L676.354 589.731C676.729 568.779 692.457 541.856 711.861 530.653L733.363 518.236C745.152 511.431 755.624 511.975 762.136 518.036C760.411 516.43 758.689 514.823 756.968 513.218Z" fill="#666666"></path> <path d="M695.062 682.777L641.214 651.688L649.336 613.628L760.726 677.937L695.062 682.777ZM851.285 482.298L797.626 488.32L622.873 589.874L608.794 655.746L608.748 671.982L685.048 716.032L798.723 707.662L973.477 606.109L983.693 575.007L983.74 558.772L851.285 482.298Z" fill="black"></path> <path d="M685.095 699.798L685.05 716.032L608.75 671.982L608.796 655.744L685.095 699.798Z" fill="#373737"></path> <path d="M695.062 682.777L785.704 676.1L649.383 597.391L638.171 649.932L695.062 682.777ZM983.741 558.772L973.521 589.874L798.771 691.427L685.095 699.798L608.795 655.744L622.875 589.873L797.627 488.318L851.287 482.297L983.741 558.771V558.772Z" fill="#585858"></path> <path d="M810.344 416.159L710.41 474.237C713.948 472.18 718.85 472.467 724.256 475.588L824.194 417.512C818.789 414.391 813.887 414.1 810.344 416.157V416.159Z" fill="#DDB204"></path> <path d="M839.512 644.733L939.449 586.657L939.677 506.587L839.742 564.667L839.512 644.733Z" fill="#FECC00"></path> <path d="M820.312 531.046L920.251 472.968L824.195 417.512L724.256 475.588L820.312 531.046Z" fill="#FECC00"></path> <path d="M754.877 475.544L824.219 435.245L889.629 473.015L820.286 513.309L754.877 475.544Z" fill="#DDB204"></path> <path d="M839.741 564.667L939.677 506.588C939.712 494.245 931.019 479.189 920.247 472.968L820.309 531.046C831.081 537.263 839.776 552.321 839.741 564.667Z" fill="#DDB204"></path> <path d="M724.255 475.588C713.514 469.385 704.762 474.371 704.728 486.717L704.5 566.783L839.512 644.734L839.742 564.668C839.777 552.324 831.082 537.266 820.309 531.047L724.253 475.589L724.255 475.588Z" fill="#DDB204"></path> <path d="M805.312 579.717C805.312 578.702 805.93 578.237 806.689 578.673L818.927 585.74C819.69 586.18 820.306 587.357 820.306 588.372C820.306 589.386 819.69 589.856 818.927 589.416L806.689 582.348C805.93 581.912 805.312 580.731 805.312 579.717Z" fill="#1A1A1A"></path> <path d="M805.312 574.177C805.312 573.162 805.93 572.699 806.689 573.139L818.927 580.202C819.69 580.642 820.306 581.823 820.306 582.833C820.306 583.848 819.69 584.318 818.927 583.877L806.689 576.815C805.93 576.373 805.312 575.192 805.312 574.177Z" fill="#1A1A1A"></path> <path d="M805.312 568.645C805.312 567.624 805.93 567.16 806.689 567.599L818.927 574.665C819.69 575.107 820.306 576.282 820.306 577.301C820.306 578.316 819.69 578.781 818.927 578.339L806.689 571.275C805.93 570.835 805.312 569.655 805.312 568.643V568.645Z" fill="#1A1A1A"></path> <path d="M805.312 563.104C805.312 562.089 805.93 561.625 806.689 562.065L818.927 569.128C819.69 569.57 820.306 570.75 820.306 571.761C820.306 572.776 819.69 573.244 818.927 572.807L806.689 565.741C805.93 565.299 805.312 564.124 805.312 563.105V563.104Z" fill="#1A1A1A"></path> <path d="M805.312 557.57C805.312 556.551 805.93 556.087 806.689 556.524L818.927 563.59C819.69 564.032 820.306 565.207 820.306 566.226C820.306 567.241 819.69 567.705 818.927 567.264L806.689 560.202C805.93 559.761 805.312 558.58 805.312 557.569V557.57Z" fill="#1A1A1A"></path> <path d="M805.312 552.029C805.312 551.014 805.93 550.55 806.689 550.991L818.927 558.055C819.69 558.495 820.306 559.675 820.306 560.69C820.306 561.706 819.69 562.17 818.927 561.732L806.689 554.666C805.93 554.225 805.312 553.049 805.312 552.03V552.029Z" fill="#1A1A1A"></path> <path d="M805.312 546.497C805.312 545.482 805.93 545.012 806.689 545.45L818.927 552.517C819.69 552.957 820.306 554.134 820.306 555.153C820.306 556.168 819.69 556.632 818.927 556.191L806.689 549.128C805.93 548.688 805.312 547.507 805.312 546.497Z" fill="#1A1A1A"></path> <path d="M805.312 540.956C805.312 539.944 805.93 539.476 806.689 539.916L818.927 546.98C819.69 547.422 820.306 548.602 820.306 549.616C820.306 550.631 819.69 551.095 818.927 550.659L806.689 543.592C805.93 543.151 805.312 541.975 805.312 540.957V540.956Z" fill="#1A1A1A"></path> <path d="M716.758 523.182C716.758 522.167 717.372 521.699 718.135 522.139L730.371 529.207C731.132 529.642 731.751 530.824 731.751 531.838C731.751 532.853 731.132 533.323 730.371 532.882L718.135 525.815C717.372 525.379 716.758 524.198 716.758 523.182Z" fill="#1A1A1A"></path> <path d="M716.758 517.645C716.758 516.629 717.372 516.165 718.135 516.603L730.371 523.668C731.132 524.11 731.751 525.285 731.751 526.301C731.751 527.316 731.132 527.786 730.371 527.344L718.135 520.278C717.372 519.841 716.758 518.661 716.758 517.645Z" fill="#1A1A1A"></path> <path d="M716.758 512.109C716.758 511.094 717.372 510.624 718.135 511.066L730.371 518.132C731.132 518.569 731.751 519.749 731.751 520.765C731.751 521.779 731.132 522.248 730.371 521.807L718.135 514.74C717.372 514.304 716.758 513.123 716.758 512.109Z" fill="#1A1A1A"></path> <path d="M716.758 506.572C716.758 505.557 717.372 505.093 718.135 505.529L730.371 512.595C731.132 513.037 731.751 514.212 731.751 515.23C731.751 516.244 731.132 516.713 730.371 516.271L718.135 509.205C717.372 508.769 716.758 507.588 716.758 506.572Z" fill="#1A1A1A"></path> <path d="M716.758 501.034C716.758 500.019 717.372 499.555 718.135 499.991L730.371 507.058C731.132 507.494 731.751 508.675 731.751 509.69C731.751 510.705 731.132 511.174 730.371 510.734L718.135 503.67C717.372 503.228 716.758 502.048 716.758 501.034Z" fill="#1A1A1A"></path> <path d="M716.758 495.497C716.758 494.482 717.372 494.018 718.135 494.454L730.371 501.522C731.132 501.962 731.751 503.139 731.751 504.153C731.751 505.169 731.132 505.638 730.371 505.196L718.135 498.133C717.372 497.693 716.758 496.512 716.758 495.497Z" fill="#1A1A1A"></path> <path d="M716.758 489.96C716.758 488.946 717.372 488.48 718.135 488.918L730.371 495.983C731.132 496.425 731.751 497.6 731.751 498.62C731.751 499.631 731.132 500.098 730.371 499.658L718.135 492.593C717.372 492.153 716.758 490.973 716.758 489.959V489.96Z" fill="#1A1A1A"></path> <path d="M716.758 484.422C716.758 483.408 717.372 482.944 718.135 483.378L730.371 490.445C731.132 490.886 731.751 492.062 731.751 493.078C731.751 494.098 731.132 494.561 730.371 494.121L718.135 487.058C717.372 486.618 716.758 485.437 716.758 484.422Z" fill="#1A1A1A"></path> <path d="M735.274 571.514L770.203 591.553C768.964 590.842 768.2 589.314 768.2 587.137L733.27 567.101C733.27 569.278 734.037 570.806 735.274 571.514Z" fill="#DDB204"></path> <path d="M784.992 531.077L750.062 511.042L740.025 516.744L774.954 536.78L784.992 531.077Z" fill="#FF6600"></path> <path d="M768.2 548.5L733.27 528.464V567.101L768.2 587.137V548.5Z" fill="#FECC00"></path> <path d="M761.338 552.471L740.127 540.306V553.474L761.338 565.639V552.471Z" fill="#BB970E"></path> <path d="M774.956 536.78L740.027 516.744C736.298 518.886 733.27 524.126 733.27 528.463L768.2 548.499C768.2 544.165 771.227 538.92 774.956 536.78Z" fill="#DDB204"></path> <path d="M768.199 587.137C768.199 591.459 771.226 593.234 774.955 591.092L784.993 585.385V531.075L774.955 536.779C771.225 538.92 768.199 544.165 768.199 548.497V587.135V587.137Z" fill="#BB970E"></path> <path d="M924.256 553.855C924.256 556.751 926.605 557.742 929.506 556.07C932.401 554.399 934.75 550.691 934.75 547.795C934.75 544.896 932.401 543.899 929.506 545.576C926.606 547.249 924.256 550.956 924.256 553.855Z" fill="white"></path> <path d="M924.256 572.56C924.256 575.457 926.605 576.451 929.506 574.778C932.401 573.102 934.75 569.395 934.75 566.499C934.75 563.599 932.401 562.608 929.506 564.284C926.606 565.952 924.256 569.659 924.256 572.56Z" fill="white"></path> <path d="M912.669 561.227V579.599C912.669 581.543 911.306 583.904 909.623 584.877L901.086 589.803L899.177 597.116L892.908 593.495C892.356 593.176 892.016 592.494 892.016 591.524V562.727C892.016 560.784 893.38 558.423 895.06 557.451L909.621 549.043C910.464 548.556 911.222 548.513 911.775 548.831L918.046 552.447L912.667 561.226L912.669 561.227Z" fill="#BB970E"></path> <path d="M901.33 596.903L915.891 588.493C917.576 587.523 918.935 585.162 918.935 583.218V554.418C918.935 552.478 917.574 551.69 915.891 552.659L901.33 561.07C899.649 562.04 898.285 564.403 898.285 566.347V595.143C898.285 597.087 899.649 597.874 901.33 596.903Z" fill="#CCCCCC"></path> <path d="M901.441 569.852L915.779 561.573V556.149L901.441 564.428V569.852Z" fill="#00A9D4"></path> <path d="M915.006 564.368L912.543 565.789C912.11 566.036 911.764 566.639 911.764 567.135V569.653C911.764 570.151 912.11 570.354 912.543 570.105L915.006 568.681C915.435 568.432 915.781 567.83 915.781 567.335V564.817C915.781 564.321 915.436 564.12 915.006 564.368Z" fill="#ED1C24"></path> <path d="M909.841 567.347L907.378 568.767C906.949 569.016 906.602 569.621 906.602 570.116V572.636C906.602 573.132 906.949 573.328 907.378 573.081L909.841 571.659C910.27 571.412 910.62 570.81 910.62 570.313V567.795C910.62 567.299 910.27 567.099 909.841 567.346V567.347Z" fill="#4D4D4D"></path> <path d="M904.682 570.326L902.218 571.747C901.79 571.994 901.439 572.596 901.439 573.093V575.611C901.439 576.109 901.79 576.312 902.218 576.065L904.682 574.641C905.111 574.393 905.458 573.791 905.458 573.295V570.778C905.458 570.28 905.111 570.08 904.682 570.327V570.326Z" fill="white"></path> <path d="M915.006 570L912.543 571.424C912.11 571.672 911.764 572.274 911.764 572.769V575.288C911.764 575.783 912.11 575.985 912.543 575.736L915.006 574.312C915.435 574.063 915.781 573.467 915.781 572.966V570.446C915.781 569.95 915.436 569.75 915.006 569.999V570Z" fill="#4D4D4D"></path> <path d="M909.841 572.978L907.378 574.402C906.949 574.65 906.602 575.252 906.602 575.748V578.267C906.602 578.763 906.949 578.965 907.378 578.716L909.841 577.295C910.27 577.047 910.62 576.442 910.62 575.946V573.426C910.62 572.931 910.27 572.731 909.841 572.978Z" fill="#4D4D4D"></path> <path d="M904.682 575.958L902.218 577.382C901.79 577.63 901.439 578.232 901.439 578.727V581.246C901.439 581.743 901.79 581.943 902.218 581.696L904.682 580.275C905.111 580.026 905.458 579.425 905.458 578.929V576.409C905.458 575.914 905.111 575.709 904.682 575.957V575.958Z" fill="#4D4D4D"></path> <path d="M915.006 575.634L912.543 577.055C912.11 577.304 911.764 577.908 911.764 578.401V580.924C911.764 581.42 912.11 581.62 912.543 581.367L915.006 579.947C915.435 579.7 915.781 579.098 915.781 578.601V576.083C915.781 575.587 915.436 575.385 915.006 575.633V575.634Z" fill="#4D4D4D"></path> <path d="M909.841 578.614L907.378 580.035C906.949 580.284 906.602 580.885 906.602 581.381V583.901C906.602 584.395 906.949 584.6 907.378 584.353L909.841 582.929C910.27 582.681 910.62 582.079 910.62 581.584V579.064C910.62 578.57 910.27 578.368 909.841 578.615V578.614Z" fill="#4D4D4D"></path> <path d="M904.682 581.593L902.218 583.015C901.79 583.262 901.439 583.869 901.439 584.363V586.883C901.439 587.378 901.79 587.578 902.218 587.331L904.682 585.91C905.111 585.659 905.458 585.057 905.458 584.561V582.043C905.458 581.546 905.111 581.345 904.682 581.593Z" fill="#4D4D4D"></path> <path d="M915.006 581.269L912.543 582.691C912.11 582.938 911.764 583.54 911.764 584.037V586.555C911.764 587.051 912.11 587.251 912.543 587.004L915.006 585.584C915.435 585.335 915.781 584.73 915.781 584.234V581.716C915.781 581.218 915.436 581.023 915.006 581.271V581.269Z" fill="#4D4D4D"></path> <path d="M909.841 584.245L907.378 585.669C906.949 585.916 906.602 586.518 906.602 587.015V589.533C906.602 590.029 906.949 590.23 907.378 589.982L909.841 588.561C910.27 588.314 910.62 587.711 910.62 587.215V584.697C910.62 584.199 910.27 583.996 909.841 584.243V584.245Z" fill="#4D4D4D"></path> <path d="M904.682 587.227L902.218 588.648C901.79 588.896 901.439 589.5 901.439 589.994V592.514C901.439 593.01 901.79 593.214 902.218 592.962L904.682 591.542C905.111 591.293 905.458 590.693 905.458 590.196V587.678C905.458 587.179 905.111 586.981 904.682 587.229V587.227Z" fill="#4D4D4D"></path> <path d="M858.718 621.393L877.752 610.401C879.951 609.132 881.733 606.044 881.733 603.505V565.861C881.733 563.323 879.951 562.292 877.752 563.563L858.718 574.551C856.519 575.823 854.736 578.908 854.736 581.446V619.094C854.736 621.632 856.519 622.663 858.718 621.392V621.393Z" fill="#F2F2F2"></path> <path d="M862.553 610.904C861.053 611.771 859.836 611.259 859.836 609.756V585.632C859.836 584.131 861.051 582.217 862.553 581.35C864.054 580.48 865.27 580.995 865.27 582.495V606.621C865.27 608.121 864.054 610.04 862.553 610.906V610.904Z" fill="#1A1A1A"></path> <path d="M874.168 604.346C872.667 605.21 871.449 604.696 871.449 603.195V579.07C871.449 577.571 872.667 575.652 874.168 574.784C875.669 573.918 876.886 574.434 876.886 575.935V600.055C876.886 601.557 875.671 603.478 874.168 604.346Z" fill="#1A1A1A"></path> <path d="M859.836 586.991L872.222 573.333L874.493 575.394L859.836 591.555V586.991Z" fill="#CCCCCC"></path> <path d="M877.575 574.362C877.575 576.69 875.69 578.58 873.362 578.58C871.032 578.58 869.143 576.69 869.143 574.362C869.143 572.032 871.032 570.149 873.362 570.149C875.69 570.149 877.575 572.032 877.575 574.362Z" fill="#5B5B5B"></path> <path d="M875.998 574.324C875.568 574.324 875.113 574.049 874.839 573.579C874.469 572.934 874.59 572.165 875.113 571.866C875.253 571.785 875.412 571.746 875.572 571.746C876.002 571.746 876.457 572.021 876.727 572.491C877.099 573.136 876.977 573.899 876.457 574.201C876.315 574.283 876.158 574.324 875.998 574.324Z" fill="#C5C6C6"></path> <path d="M881.772 608.526L871.451 596.167V591.385L884.126 606.56L881.772 608.526Z" fill="#CCCCCC"></path> <path d="M887.167 607.543C887.167 609.871 885.28 611.759 882.951 611.759C880.621 611.759 878.734 609.871 878.734 607.543C878.734 605.213 880.621 603.328 882.951 603.328C885.28 603.328 887.167 605.213 887.167 607.543Z" fill="#5B5B5B"></path> <path d="M885.522 607.783C885.092 607.783 884.637 607.507 884.366 607.039C883.994 606.397 884.115 605.63 884.637 605.326C884.779 605.248 884.937 605.209 885.096 605.209C885.526 605.209 885.981 605.484 886.253 605.952C886.625 606.594 886.502 607.36 885.981 607.661C885.84 607.745 885.682 607.783 885.522 607.783Z" fill="#C5C6C6"></path> <path d="M666.569 506.363L677.383 500.079L677.144 584.134L666.33 590.421L666.569 506.363Z" fill="#585858"></path> <path d="M655.707 494.907L666.521 488.622C675.409 483.556 680.402 480.711 689.288 475.645L678.472 481.932C669.586 486.997 664.592 489.841 655.709 494.907H655.707Z" fill="#2E2E2E"></path> <path d="M813.785 586.174L824.6 579.885L824.347 669.121L813.531 675.406L813.785 586.174Z" fill="#808080"></path> <path d="M791.166 546.999L801.98 540.711C810.81 556.005 815.768 564.596 824.6 579.885L813.784 586.174L813.373 585.461L812.968 584.759L812.567 584.067L812.173 583.382L811.782 582.707L811.398 582.04L811.016 581.38L810.639 580.727L810.268 580.082L809.901 579.445L809.536 578.816L809.175 578.191L808.819 577.572L808.467 576.96L808.116 576.353L807.769 575.752L807.424 575.155L807.082 574.565V574.563L806.744 573.976L806.408 573.392L806.072 572.812L805.739 572.235L805.408 571.662L805.079 571.092V571.09L804.751 570.523L804.422 569.956L804.097 569.39L803.771 568.829L803.447 568.267L803.123 567.707V567.705L802.801 567.147V567.146L802.477 566.586V566.584L802.155 566.025L801.831 565.465L801.507 564.905L801.183 564.344V564.343L800.859 563.78L800.532 563.216L800.204 562.65V562.649L799.875 562.082L799.547 561.512V561.51L799.215 560.937V560.936L798.881 560.361V560.36L798.547 559.781V559.78L798.209 559.196L797.871 558.61V558.609L797.529 558.018V558.017L797.184 557.422V557.42L796.837 556.819L796.486 556.214V556.212L796.134 555.601V555.6L795.776 554.982V554.981L795.417 554.359L795.052 553.726L794.683 553.09V553.087L794.312 552.446L793.935 551.791L793.555 551.134V551.131L793.169 550.466L791.167 546.998L791.166 546.999Z" fill="#808080"></path> <path d="M678.473 481.932L689.288 475.647L801.981 540.711L791.167 547.001L678.473 481.932Z" fill="#585858"></path> <path d="M791.166 547.001C799.995 562.291 804.956 570.881 813.785 586.174L813.533 675.406L802.639 669.117L802.875 585.061L786.625 556.915L682.944 497.056L666.571 506.363L666.333 590.421L655.455 584.14L655.71 494.907C664.595 489.841 669.589 486.997 678.474 481.932L791.168 547.001H791.166Z" fill="black"></path> <path d="M637.96 656.3L639.65 656.253L634.814 657.185L637.959 656.3L582.713 657.91V671.79C582.717 673.372 583.735 674.978 585.928 676.241L644.966 710.326C650.723 713.651 660.527 712.313 663.106 707.853L692.622 656.724C693.019 656.039 693.186 655.354 693.186 654.693L693.205 640.812L637.959 656.297L637.96 656.3Z" fill="black"></path> <path d="M644.967 696.45L585.93 662.359C580.17 659.038 582.484 653.374 590.209 651.888L678.766 634.847C687.33 633.198 695.478 637.9 692.624 642.845L663.108 693.974C660.529 698.437 650.725 699.771 644.967 696.45Z" fill="#666666"></path> <path d="M674.287 95.7175C677.596 93.8056 682.962 93.8056 686.27 95.7175C687.926 96.6748 688.753 97.9268 688.753 99.1773V640.771C688.753 642.021 687.924 643.273 686.27 644.231C682.962 646.14 677.596 646.14 674.287 644.231C672.632 643.273 671.805 642.021 671.805 640.771V99.1773C671.805 97.9268 672.634 96.6748 674.287 95.7175Z" fill="#B3B3B3"></path> <path d="M609.588 357.69L647.651 379.666C649.911 380.972 653.605 380.189 654.248 379.433L673.156 346.671C672.283 346.278 670.663 345.908 668.766 346.273L610.205 357.54L609.588 357.69ZM650.836 388.307C648.257 388.307 645.688 387.709 643.674 386.544L604.636 364.006C601.623 362.269 600.117 359.479 600.612 356.553C601.179 353.199 604.277 350.585 608.703 349.735L667.26 338.468C672.542 337.454 677.871 339.094 680.266 342.46C681.82 344.643 681.953 347.331 680.617 349.649L661.098 383.459C659.202 386.736 655.009 388.306 650.837 388.306L650.836 388.307Z" fill="black"></path> <path d="M609.588 231.145L647.651 253.12C649.911 254.428 653.605 253.645 654.248 252.885L673.156 220.127C672.283 219.734 670.663 219.363 668.766 219.729L610.205 231.002L609.588 231.146V231.145ZM650.836 261.764C648.257 261.764 645.688 261.165 643.674 260L604.636 237.462C601.623 235.728 600.117 232.937 600.612 230.009C601.179 226.661 604.277 224.047 608.703 223.194L667.26 211.926C672.542 210.911 677.871 212.555 680.266 215.916C681.82 218.103 681.953 220.793 680.617 223.104L661.098 256.912C659.202 260.195 655.009 261.764 650.837 261.764H650.836Z" fill="black"></path> <path d="M609.588 466.61L647.651 488.586C649.911 489.894 653.605 489.114 654.248 488.354L673.156 455.596C672.283 455.198 670.663 454.833 668.766 455.194L610.205 466.466L609.588 466.612V466.61ZM650.836 497.232C648.257 497.232 645.688 496.634 643.674 495.469L604.636 472.931C601.623 471.191 600.117 468.404 600.612 465.476C601.179 462.124 604.277 459.511 608.703 458.661L667.26 447.389C672.542 446.37 677.871 448.018 680.266 451.383C681.82 453.568 681.953 456.257 680.617 458.57L661.098 492.379C659.202 495.662 655.009 497.232 650.837 497.232H650.836Z" fill="black"></path> <path d="M609.591 575.535L647.651 597.507C649.912 598.815 653.605 598.043 654.248 597.276L673.156 564.517C672.283 564.123 670.663 563.754 668.766 564.119L610.205 575.391L609.591 575.535ZM650.839 606.153C648.261 606.153 645.688 605.555 643.674 604.39L604.636 581.848C601.623 580.116 600.117 577.329 600.612 574.398C601.179 571.049 604.277 568.436 608.703 567.582L667.26 556.315C672.542 555.299 677.871 556.944 680.266 560.305C681.82 562.493 681.953 565.181 680.617 567.495L661.098 601.301C659.202 604.583 655.009 606.151 650.839 606.151V606.153Z" fill="black"></path> <path d="M590.652 112.02C593.963 110.111 599.328 110.111 602.639 112.02C604.291 112.976 605.121 114.228 605.121 115.478V657.071C605.121 658.323 604.291 659.574 602.639 660.531C599.328 662.44 593.963 662.44 590.652 660.531C588.997 659.574 588.172 658.323 588.172 657.071V115.478C588.172 114.228 588.997 112.976 590.652 112.02Z" fill="#B3B3B3"></path> <path d="M646.154 142.837C649.462 140.929 654.829 140.929 658.136 142.837C659.793 143.793 660.619 145.045 660.619 146.296V687.889C660.619 689.141 659.793 690.396 658.136 691.349C654.829 693.261 649.462 693.261 646.154 691.349C644.5 690.396 643.672 689.141 643.672 687.889V146.296C643.672 145.045 644.501 143.793 646.154 142.837Z" fill="#B3B3B3"></path> <path d="M637.96 103.366L639.65 103.319L634.814 104.247L637.959 103.366L582.713 104.975V118.855C582.717 120.437 583.735 122.038 585.928 123.304L644.966 157.391C650.723 160.717 660.527 159.378 663.106 154.92L692.622 103.79C693.019 103.103 693.186 102.421 693.186 101.761L693.205 87.88L637.959 103.366H637.96Z" fill="black"></path> <path d="M644.967 143.511L585.93 109.426C580.17 106.1 582.484 100.441 590.209 98.952L678.766 81.9089C687.33 80.2592 695.478 84.9666 692.624 89.9083L663.108 141.039C660.529 145.498 650.725 146.836 644.967 143.511Z" fill="#666666"></path> <path d="M643.672 361.419V454.201L649.326 457.484L649.531 529.358L660.621 537.469V368.068C655.053 366.021 649.474 363.664 643.672 361.419Z" fill="#B3B3B3"></path> <path d="M823.672 780.226V784.794C823.672 787.987 821.563 791.173 817.349 793.606C808.919 798.474 795.251 798.474 786.821 793.606C782.604 791.173 780.498 787.987 780.498 784.794V780.226H823.671H823.672Z" fill="black"></path> <path d="M786.823 771.414C778.392 776.282 778.392 784.174 786.823 789.042C795.253 793.905 808.921 793.905 817.351 789.042C825.782 784.174 825.782 776.282 817.351 771.414C808.921 766.55 795.253 766.55 786.823 771.414Z" fill="#585858"></path> <path d="M814.173 779.711L802.086 786.688V655.61L814.173 648.632V779.711Z" fill="#999999"></path> <path d="M805.699 657.699L810.557 654.895V777.621L805.699 780.427V657.699Z" fill="#333333"></path> <path d="M814.172 648.632L802.086 655.61L790.002 648.632L802.086 641.655L814.172 648.632Z" fill="#585858"></path> <path d="M790.002 779.711L802.086 786.688V655.61L790.002 648.632V779.711Z" fill="#333333"></path> <path d="M721.63 644.879C714.849 644.879 708.599 643.622 702.856 641.12C667.682 625.819 661.031 569.912 653.989 510.72C648.865 467.656 683.789 328.018 684.925 258.909C685.153 245.083 679.699 207.447 658.141 207.447C640.714 207.447 628.141 230.326 620.788 237.611C615.175 234.54 613.955 233.715 611.033 227.082C622.681 215.537 637.946 193.463 657.549 193.463C690.073 193.463 698.569 233.544 698.65 255.965C698.929 330.958 663.914 464.242 669.227 508.905C675.444 561.191 681.877 615.261 708.976 627.051C725.885 634.402 752.01 625.292 786.635 599.964C793.084 596.109 800.756 608.822 795.695 612.348C765.953 634.107 741.501 644.879 721.628 644.879H721.63Z" fill="#333333"></path> <path d="M548.976 534.775L535.14 584.376L517.876 595.795C506.209 594.38 498.347 578.737 489.838 560.295L473.586 527.037L498.159 499.467L518.383 547.607L538.804 525.434L548.976 534.775Z" fill="#BA3800"></path> <path d="M441.505 816.12L438.708 830.631C438.708 830.631 448.745 846.796 455.332 850.955C461.919 855.119 469.427 865.044 466.589 869.918C463.751 874.793 455.737 881.267 438.974 872.877C438.974 872.877 434.771 870.311 424.778 858.385C410.565 841.424 417.332 835.703 417.921 829.576C418.519 823.443 420.589 816.302 420.589 816.302L441.503 816.121L441.505 816.12Z" fill="black"></path> <path d="M477.705 768.11L477.8 782.873C477.8 782.873 484.345 789.828 489.005 792.345C493.658 794.865 500.691 799.411 502.115 800.661C516.302 813.137 493.936 821.114 483.853 812.555C477.875 807.482 474.781 803.266 469.33 802.458C463.881 801.656 453.226 799.184 451.998 795.238C450.768 791.294 458.252 767.017 458.252 767.017L477.705 768.109V768.11Z" fill="black"></path> <path d="M447.865 651.981L461.089 706.385C461.089 706.385 449.885 727.883 451.05 774.262C451.05 774.262 462.242 790.17 477.799 782.873C477.799 782.873 487.519 714.419 493.15 703.825C498.785 693.227 490.089 633.792 490.089 633.792L447.865 651.982V651.981Z" fill="#004759"></path> <path d="M469.594 784.789C460.655 784.786 454.12 778.005 451.887 775.33C454.448 762.413 456.877 750.208 458.03 743.09C458.157 742.135 460.409 729.754 460.578 728.584C462.443 715.247 462.789 692.653 462.744 676.374C462.723 673.659 462.704 671.123 462.679 668.84C472.497 667.077 482.799 663.614 493.117 658.484C494.15 668.532 495.055 679.883 495.05 688.903C495.048 695.738 494.528 701.237 493.152 703.825C487.521 714.419 477.801 782.873 477.801 782.873C474.898 784.234 472.148 784.789 469.594 784.789Z" fill="#002D3C"></path> <path d="M462.489 657.023C462.489 657.023 462.531 659.144 462.574 662.692C462.662 666.115 462.705 670.874 462.745 676.372C462.792 692.651 462.446 715.246 460.58 728.583C460.41 729.752 458.16 742.134 458.032 743.088C454.91 762.355 442.441 818.893 443.311 825.866C443.311 825.866 427.502 825.691 419.323 821.362C417.855 820.622 416.679 819.761 415.818 818.718C410.144 811.795 420.577 763.046 425.647 737.416C425.647 737.416 425.689 726.631 424.736 722.092C423.742 717.543 416.809 660.618 416.809 660.618C415.17 657.367 413.868 653.815 412.957 650.009C411.183 642.388 411.054 633.599 413.432 623.383C413.996 621.003 414.691 618.577 415.514 616.065L490.453 623.124C490.453 623.124 487.247 651.999 462.487 657.023H462.489Z" fill="#004759"></path> <path d="M508.549 649.53C467.033 677.155 421.876 677.412 404.604 648.403L406.38 627.668L407.981 608.317L412.485 555.024L415.515 519.389C419.408 517.267 441.619 501.08 460.063 495.019L496.777 494.756C500.801 550.609 502.919 580.262 504.221 598.011L504.264 598.919C504.738 605.545 505.131 610.476 505.476 614.507C506.429 626.934 506.859 630.917 508.55 649.529L508.549 649.53Z" fill="#E35B00"></path> <path d="M505.839 619.421C505.839 619.421 494.823 634.895 460.843 641.914C426.811 648.925 406.379 627.666 406.379 627.666L407.98 608.315C439.153 626.757 478.158 621.864 504.222 598.009L504.264 598.918L505.84 619.419L505.839 619.421Z" fill="#FCEE21"></path> <path d="M462.68 668.84C462.65 666.5 462.621 664.426 462.573 662.694L412.958 650.01C413.869 653.818 415.171 657.369 416.81 660.62C416.81 660.62 416.853 660.948 416.926 661.562C411.991 658.181 407.815 653.797 404.605 648.405L406.382 627.669C406.382 627.669 421.438 643.334 447.227 643.334C451.478 643.334 456.029 642.906 460.844 641.917C494.824 634.898 505.84 619.424 505.84 619.424L505.459 614.516C505.468 614.512 505.472 614.512 505.477 614.512C506.429 626.939 506.86 630.921 508.55 649.533C493.229 659.727 477.409 666.196 462.681 668.843L462.68 668.84ZM448.946 619.537C434.933 619.537 420.793 615.895 407.981 608.317L412.486 555.024L441.057 550.39C461.053 583.876 469.084 604.833 481.954 612.557C471.539 617.153 460.282 619.537 448.946 619.537Z" fill="#C53B00"></path> <path d="M447.226 643.332C421.437 643.332 406.381 627.668 406.381 627.668L407.982 608.317C420.793 615.895 434.933 619.537 448.947 619.537C460.282 619.537 471.54 617.154 481.955 612.557C485.686 614.791 489.819 615.915 494.768 615.915C497.959 615.915 501.485 615.451 505.461 614.513L505.842 619.421C505.842 619.421 494.826 634.895 460.846 641.914C456.031 642.905 451.48 643.331 447.229 643.331L447.226 643.332Z" fill="#DB9A10"></path> <path d="M458.567 604.129C445.633 557.046 437.819 537.26 422.149 522.369C422.149 522.369 418.387 516.922 415.497 519.381C389.571 541.423 429.611 609.691 432.053 613.472C439.314 624.722 443.901 637.37 474.636 662.032L486.175 647.305C486.175 647.305 465.419 619.028 458.567 604.129Z" fill="#E35B00"></path> <path d="M460.09 480.325L443.9 502.1C434.123 509.977 451.207 528.174 467.482 529.47C475.107 528.462 471.282 509.867 480.61 505.039L460.092 480.326L460.09 480.325Z" fill="#FFB294"></path> <path d="M468.319 529.537C468.042 529.537 467.759 529.512 467.482 529.465C473.897 528.619 472.208 515.305 477.074 508.239L484.206 509.465C484.206 509.465 476.525 529.537 468.319 529.537Z" fill="#E35000"></path> <path d="M467.483 529.47C452.235 526.848 456.089 504.628 456.089 504.628L477.076 508.241C472.21 515.308 473.899 528.625 467.483 529.47Z" fill="#FF9C7B"></path> <path d="M456.088 504.626L456.66 509.178C457.079 512.553 458.871 515.605 461.62 517.613L471.089 524.55C476.28 526.19 480.721 525.651 484.122 522.088C487.524 518.526 491.99 503.893 491.99 503.893L494.697 497.254C495.46 486.94 494.693 477.679 488.797 471.922C480.413 460.063 469.992 458.794 458.547 462.823C453.224 466.448 450.44 471.469 449.203 477.335V493.565L456.089 504.626H456.088Z" fill="#FFB294"></path> <path d="M455.898 459.894C455.898 459.894 446.965 461.239 443.113 469.188C443.113 469.188 439.261 477.179 443.447 486.054C447.626 494.93 456.972 501.711 456.972 501.711C456.972 501.711 462.872 505.892 470.49 508.867L480.198 513.281C480.198 513.281 485.406 515.137 490.564 513.745C495.72 512.35 499.486 509.891 499.486 509.891C499.486 509.891 507.615 505.288 505.245 496.973C502.877 488.654 498.604 478.198 496.139 475.414L455.899 459.892L455.898 459.894Z" fill="#BA3800"></path> <path d="M456.144 458.845C456.144 458.845 447.21 460.194 443.36 468.139C443.36 468.139 439.512 476.131 443.692 485.006C447.877 493.881 457.212 500.664 457.212 500.664C457.212 500.664 463.116 504.844 470.732 507.824L480.447 512.238C480.447 512.238 485.651 514.091 490.808 512.698C495.969 511.307 499.725 508.843 499.725 508.843C499.725 508.843 507.863 504.246 505.488 495.921C503.119 487.604 498.847 477.157 496.383 474.367L456.143 458.844L456.144 458.845Z" fill="#E35B00"></path> <path d="M446.344 472.047C447.83 467.279 451.248 462.024 455.801 458.916C457.295 457.243 462.354 453.507 468.577 454.506L474.984 454.756C474.984 454.756 481.679 453.78 490.392 461.66C499.105 469.536 499.383 484.453 499.383 484.453C499.383 484.453 499.383 493.161 496.732 498.109C496.732 498.109 493.667 505.915 481.397 505.777C469.134 505.638 459.237 498.458 459.237 498.458C446.098 488.349 444.564 477.732 446.345 472.046L446.344 472.047Z" fill="#FF6600"></path> <path d="M451.742 463.99C456.691 472.182 471.683 487.208 482.899 495.428L451.742 463.99Z" fill="#BA3800"></path> <path d="M455.798 458.916C455.798 458.916 460.211 456.226 467.319 460.717C474.431 465.213 479.268 471.138 479.268 471.138C479.268 471.138 487.637 481.384 489.83 490.027C489.83 490.027 490.213 485.596 484.71 475.632C479.203 465.668 468.121 458.845 468.121 458.845C468.121 458.845 460.41 454.633 455.797 458.914L455.798 458.916Z" fill="#BA3800"></path> <path d="M474.98 454.756C485.633 457.228 495.28 466.42 497.358 484.103C497.358 484.103 497.435 473.57 493.009 466.463C489.524 460.862 483.062 455.172 474.98 454.758V454.756Z" fill="#BA3800"></path> <path d="M485.021 506.893L484.393 505.64L485.298 497.202C490.625 495.942 494.924 493.795 497.355 490.027L498.884 490.629L498.155 499.468C495.641 503.985 490.838 505.999 485.021 506.892V506.893Z" fill="#BA3800"></path> <path d="M499.256 482.569H500.421L501.126 487.06L500.192 490.264L498.975 490.026C499.573 487.784 499.718 485.322 499.256 482.569Z" fill="#BA3800"></path> <path d="M467.953 503.008L469.446 499.888L474.395 501.446L474.636 502.606L473.031 505.779L467.953 504.418V503.008Z" fill="#BA3800"></path> <path d="M443.902 476.573L445.438 473.507L447.039 473.822L447.665 477.723L446.39 481.125L444.69 480.686L443.902 476.573Z" fill="#BA3800"></path> <path d="M542.368 531.88L539.042 527.898C539.042 527.898 538.241 520.129 538.338 518.827C538.441 517.519 539.646 508.977 539.646 508.977L542.368 505.778H545.771C545.771 505.778 549.686 514.742 549.783 516.928C549.708 515.298 549.942 515.298 549.83 522.815L549.796 529.916C549.805 532.096 548.843 536.438 547.438 538.103L542.367 541.421V531.878L542.368 531.88Z" fill="black"></path> <path d="M489.42 643.948C479.217 639.422 465.557 655.143 471 664.302L480.35 671.281C484.607 680.177 486.944 682.576 498.241 689.268L506.17 691.632L513.829 689.66C516.519 688.154 519.759 679.927 520.18 675.035C520.335 673.353 519.144 671.842 517.513 671.41C510.15 670.761 506.683 668.325 503.908 663.94C502.606 661.886 512.685 657.681 512.685 657.681C516.528 656.388 515.799 651.812 510.751 653.1L498.277 655.249L489.422 643.951L489.42 643.948Z" fill="black"></path> <path d="M419.326 821.363C417.857 820.624 416.682 819.762 415.82 818.719C414.664 817.308 414.178 814.147 414.178 809.808C414.182 792.859 421.613 757.816 425.649 737.417C425.649 737.417 425.649 737.35 425.649 737.227C425.649 737.227 425.649 737.221 425.649 737.219C425.649 737.214 425.649 737.214 425.649 737.207C425.649 737.204 425.649 737.198 425.649 737.198C425.649 737.195 425.649 737.191 425.649 737.186C425.649 737.186 425.649 737.182 425.649 737.179C425.649 737.174 425.649 737.168 425.649 737.166C425.649 735.529 425.606 726.226 424.739 722.092C423.816 717.894 417.835 668.999 416.928 661.561C425.372 667.345 436.034 670.204 447.916 670.204C452.666 670.204 457.611 669.747 462.682 668.84C462.707 671.123 462.725 673.659 462.747 676.374L441.497 702.521L437.121 743.134L419.329 821.363H419.326Z" fill="#002D3C"></path> <path d="M447.914 670.204C436.033 670.204 425.369 667.345 416.925 661.561C416.851 660.947 416.809 660.618 416.809 660.618C415.169 657.367 413.867 653.815 412.957 650.009L462.572 662.692C462.619 664.424 462.649 666.5 462.678 668.838C457.607 669.746 452.664 670.202 447.912 670.202L447.914 670.204Z" fill="#622500"></path> <path d="M585.503 826.766C580.557 829.639 574.449 831.395 568.022 832.071C567.144 832.154 566.227 832.233 565.309 832.272C562.393 832.432 559.521 832.389 556.687 832.113C551.859 831.635 547.186 830.556 543.039 828.881C541.48 828.283 540.004 827.566 538.646 826.767C525.758 819.303 525.758 807.208 538.646 799.747C543.755 796.829 550.063 795.035 556.687 794.438C560.437 794.041 564.269 794.079 568.021 794.481C574.447 795.154 580.555 796.913 585.501 799.747C598.394 807.208 598.394 819.303 585.501 826.767L585.503 826.766Z" fill="#A46532"></path> <path d="M575.359 820.917C572.554 822.547 569.092 823.543 565.448 823.925C564.95 823.972 564.431 824.017 563.91 824.038C562.257 824.129 560.628 824.104 559.021 823.948C556.285 823.677 553.636 823.065 551.284 822.116C550.4 821.777 549.564 821.371 548.795 820.917C541.488 816.685 541.488 809.83 548.795 805.599C551.691 803.945 555.267 802.928 559.023 802.59C561.15 802.363 563.322 802.386 565.448 802.615C569.092 802.996 572.554 803.992 575.359 805.599C582.669 809.83 582.669 816.685 575.359 820.917Z" fill="black"></path> <path d="M570.638 669.7V803.319C570.638 816.204 554.215 816.995 554.215 803.319V669.7H570.638Z" fill="#3B3B3B"></path> <path d="M552.113 663.75C546.421 667.033 546.421 672.368 552.113 675.654C557.809 678.943 567.038 678.943 572.736 675.654C578.428 672.368 578.428 667.033 572.736 663.75C567.038 660.462 557.809 660.462 552.113 663.75Z" fill="#4A6373"></path> <path d="M579.721 672.455V690.047C579.721 692.6 578.033 695.157 574.656 697.108C567.901 701.01 556.947 701.01 550.191 697.108C546.815 695.157 545.127 692.6 545.127 690.047V672.455H579.721Z" fill="#606060"></path> <path d="M550.193 665.392C543.438 669.294 543.438 675.615 550.193 679.517C556.949 683.416 567.903 683.416 574.658 679.517C581.414 675.615 581.414 669.294 574.658 665.392C567.903 661.492 556.949 661.492 550.193 665.392Z" fill="#4A6373"></path> <path d="M589.901 662.062V677.374C589.901 681.438 587.219 685.496 581.856 688.596C571.123 694.787 553.726 694.787 542.994 688.596C537.628 685.496 534.949 681.438 534.949 677.374V662.062H589.899H589.901Z" fill="#333333"></path> <path d="M542.997 650.844C532.269 657.038 532.269 667.084 542.997 673.276C553.728 679.474 571.123 679.474 581.858 673.276C592.585 667.083 592.585 657.038 581.858 650.844C571.125 644.65 553.728 644.65 542.997 650.844Z" fill="#CCCCCC"></path> <path d="M579.721 640.657V658.248C579.721 660.804 578.033 663.361 574.656 665.31C567.901 669.211 556.947 669.211 550.191 665.31C546.815 663.361 545.127 660.804 545.127 658.248V640.657H579.721Z" fill="#4D4D4D"></path> <path d="M550.193 633.59C543.438 637.492 543.438 643.818 550.193 647.715C556.949 651.617 567.903 651.617 574.658 647.715C581.414 643.818 581.414 637.492 574.658 633.59C567.903 629.689 556.949 629.689 550.193 633.59Z" fill="#CCCCCC"></path> <path d="M571.039 408.583V638.427C571.039 639.697 570.201 640.971 568.516 641.943C565.152 643.884 559.699 643.884 556.334 641.943C554.649 640.972 553.811 639.698 553.811 638.427V408.583H571.039Z" fill="#333333"></path> <path d="M586.578 505.414C574.208 498.274 554.162 498.274 541.798 505.414C535.615 508.98 532.523 513.661 532.523 518.338V533.641C532.523 538.322 535.615 542.999 541.798 546.571C554.162 553.708 574.208 553.708 586.578 546.571C592.755 543 595.847 538.322 595.847 533.641V518.341C595.85 513.663 592.757 508.982 586.578 505.413V505.414Z" fill="#808080"></path> <path d="M510.709 491.332V502.65C510.709 510.552 515.93 518.453 526.372 524.481C547.255 536.54 581.113 536.54 602 524.481C612.439 518.453 617.663 510.552 617.663 502.65V491.332H510.71H510.709Z" fill="#3B3B3B"></path> <path d="M601.999 469.503C622.882 481.559 622.882 501.108 601.999 513.163C581.112 525.221 547.254 525.221 526.371 513.163C505.488 501.108 505.488 481.559 526.371 469.503C547.254 457.445 581.112 457.445 601.999 469.503Z" fill="#666666"></path> <path d="M573.801 229.548L573.435 357.99L552.898 362.546L553.265 234.104L573.801 229.548Z" fill="#878787"></path> <path d="M553.264 234.104L552.898 362.546L540.195 355.213L540.559 226.769L553.264 234.104Z" fill="#606060"></path> <path d="M621.907 229.859L621.542 358.301L616.176 367.214L616.541 238.771L621.907 229.859Z" fill="#7C7C7C"></path> <path d="M604.209 247.106L603.847 375.546L573.436 357.99L573.801 229.548L604.209 247.106Z" fill="#606060"></path> <path d="M636.622 250.365L636.257 378.807L622.918 386.559L623.285 258.12L636.622 250.365Z" fill="#8A8A8A"></path> <path d="M609.117 266.35L608.752 394.79L596.051 387.455L596.416 259.018L609.117 266.35Z" fill="#606060"></path> <path d="M623.282 258.119L622.915 386.559L608.75 394.79L609.115 266.35L623.282 258.119Z" fill="#8A8A8A"></path> <path d="M621.907 229.859L616.541 238.771L636.621 250.365L623.284 258.119L609.117 266.35L596.416 259.018L604.21 247.106L573.801 229.548L553.266 234.104L540.561 226.768L554.728 218.536L568.066 210.787L588.131 222.37L603.516 219.242L621.907 229.859Z" fill="#9A9A9A"></path> <path d="M562.425 136.348L561.454 478.856L544.678 488.604L545.651 146.098L562.425 136.348Z" fill="#BB970E"></path> <path d="M545.652 146.099L544.678 488.604L535.531 483.325L536.5 140.815L545.652 146.099Z" fill="#DDB204"></path> <path d="M587.266 150.69L586.297 493.198L561.453 478.856L562.424 136.348L587.266 150.69Z" fill="#1A1A1A"></path> <path d="M604.219 144.06L603.968 234.31L603.882 261.749V262.462L603.842 278.136L603.228 486.56L595.457 498.492L596.129 257.274L596.191 235.55L596.423 155.968L604.219 144.06Z" fill="#BB970E"></path> <path d="M579.651 165.73L578.679 508.238L569.516 502.946L570.486 160.442L579.651 165.73Z" fill="#808080"></path> <path d="M596.43 155.979L595.458 498.486L578.682 508.238L579.654 165.729L596.43 155.979Z" fill="#FECC00"></path> <path d="M604.21 144.06L596.428 155.979L579.652 165.73L570.487 160.442L587.267 150.69L562.425 136.348L545.651 146.099L536.5 140.815L553.278 131.064L573.815 126.513L604.21 144.06Z" fill="#CCCCCC"></path> <path d="M621.907 229.859L621.542 358.301L616.176 367.214L616.541 238.771L621.907 229.859Z" fill="#7C7C7C"></path> <path d="M609.117 266.35L608.752 394.79L596.051 387.455L596.416 259.018L609.117 266.35Z" fill="#606060"></path> <path d="M623.282 258.12L609.115 266.35L608.75 394.79L622.915 386.559L636.254 378.807L636.619 250.365L623.282 258.12Z" fill="#8A8A8A"></path> <path d="M617.507 271.193L628.175 264.994L627.866 373.963L617.193 380.162L617.507 271.193Z" fill="#3B3B3B"></path> <path d="M616.548 238.771L621.902 229.862L603.966 219.485L603.881 246.921L604.218 247.112L603.881 247.637L596.422 259.024L603.841 263.307L609.111 266.356L623.294 258.121L636.612 250.368L616.548 238.771Z" fill="#CCCCCC"></path> <path d="M570.011 150.015C566.793 148.159 561.577 148.159 558.362 150.015C556.753 150.943 555.949 152.16 555.949 153.379V492.892C555.949 494.107 556.753 495.326 558.362 496.256C561.577 498.112 566.793 498.112 570.011 496.256C571.622 495.326 572.424 494.107 572.424 492.892V153.379C572.424 152.16 571.622 150.943 570.011 150.015Z" fill="#CCCCCC"></path> <path d="M549.691 165.797V355.507C549.691 357.647 551.107 359.789 553.936 361.422C559.597 364.691 568.773 364.691 574.433 361.422C577.261 359.79 578.678 357.647 578.678 355.507V165.797H549.691Z" fill="#666666"></path> <path d="M579.651 165.73L578.679 508.238L569.516 502.946L570.486 160.442L579.651 165.73Z" fill="#DDB204"></path> <path d="M573.102 115.823L573.055 111.632L616.205 136.547L604.328 133.851L573.102 115.823Z" fill="#4D4D4D"></path> <path d="M532.965 139.152L524.537 139.831L573.056 111.632L573.104 115.823L532.965 139.152Z" fill="#4D4D4D"></path> <path d="M524.597 150.562L524.566 162.301C524.555 158.113 524.541 155.758 524.504 151.57L524.539 139.831C524.573 144.019 524.588 146.374 524.597 150.562Z" fill="#434343"></path> <path d="M533.004 145.857L524.597 150.561C524.586 146.373 524.571 144.018 524.539 139.83L532.966 139.151C532.995 141.33 533.008 143.678 533.005 145.857H533.004Z" fill="#606060"></path> <path d="M604.329 133.851L564.186 157.185C560.446 157.185 556.384 157.185 552.618 157.185L533.005 145.86C533.008 143.68 532.994 141.332 532.965 139.152L573.102 115.824L604.328 133.853L604.329 133.851Z" fill="#DDB204"></path> <path d="M604.328 133.851L616.206 136.547L567.684 164.744L564.186 157.185L604.328 133.851Z" fill="#4D4D4D"></path> <path d="M616.206 136.547L616.174 148.287L567.654 176.485L567.684 164.744L616.206 136.547Z" fill="#333333"></path> <path d="M567.682 164.744L567.652 176.483H567.316H566.985H566.657H566.333H566.013H565.699H565.387H565.079H564.774H564.473H564.175H564.174H563.879H563.878H563.588H563.299H563.012H562.728H562.446H562.166H561.888H561.613H561.339H561.066H561.065H560.794H560.524H560.523H560.256H559.988H559.722H559.455H559.189H558.924H558.659H558.657H558.392H558.128H557.863H557.862H557.597H557.595H557.33H557.064H557.062H556.796H556.794H556.528H556.526H556.26H556.258H555.99H555.989H555.718H555.716H555.444H555.17H555.168H554.894H554.893H554.616H554.615H554.335H554.333H554.052H554.051H553.768H553.765H553.481H553.478H553.189H553.188H552.896H552.895H552.602H552.599H552.303H552.3H552.001H551.996H551.694H551.691H551.385H551.382H551.071H551.068H550.756H550.753H550.435H550.432H550.111H550.108H549.783H549.778H549.45H549.446H549.111L549.142 164.744C556.386 164.744 560.451 164.744 567.667 164.744H567.682Z" fill="#333333"></path> <path d="M549.158 164.744L549.123 176.485L524.566 162.305L524.597 150.564L549.158 164.744Z" fill="#333333"></path> <path d="M564.183 157.185L567.681 164.743C560.463 164.743 556.4 164.743 549.156 164.743L552.617 157.185C556.383 157.185 560.446 157.185 564.183 157.185Z" fill="#606060"></path> <path d="M552.618 157.185L549.157 164.744L524.596 150.564L533.005 145.858L552.618 157.185Z" fill="#606060"></path> <path d="M574.098 136.348V142.854C574.098 144.578 572.96 146.305 570.678 147.619C566.124 150.252 558.728 150.252 554.174 147.619C551.894 146.305 550.754 144.58 550.754 142.854V136.348H574.097H574.098Z" fill="#333333"></path> <path d="M554.172 131.583C549.615 134.213 549.615 138.479 554.172 141.114C558.726 143.743 566.122 143.743 570.676 141.114C575.233 138.479 575.233 134.213 570.676 131.583C566.122 128.949 558.726 128.949 554.172 131.583Z" fill="white"></path> <path d="M644.828 737.512L636.54 737.68L621.055 735.432L611.813 740.509L604.744 744.443L596.951 753.033C595.531 754.886 597.016 756.287 599.379 754.681L607.134 748.398C607.06 750.292 607.782 751.662 609.523 752.348C609.987 754.189 611.165 755.399 613.147 755.976C613.807 757.252 615.214 757.95 616.9 758.431L623.558 760.04L626.349 758.29L626.735 755.44L633.561 752.923L637.197 750.134L646.991 744.053L644.828 737.512Z" fill="#FFB294"></path> <path d="M678.898 719.137L678.665 721.457C680.693 724.858 680.48 728.629 678.963 732.613L677.658 738.725L678.452 742.418C678.091 744.865 676.859 745.031 675.3 744.322L676.689 746.292L680.21 750.688L683.947 752.597C685.492 753.782 685.055 754.352 683.882 754.686C684.589 755.986 683.978 756.663 682.733 757.04L679.472 755.007C679.546 756.608 678.658 757.766 677.225 756.599L671.503 751.077C669.28 747.816 667.586 744.421 666.771 740.796C666.848 734.794 667.869 729.031 670.09 723.575L670.047 720.715C669.309 717.038 678.41 716.418 678.896 719.136L678.898 719.137Z" fill="#FFB294"></path> <path d="M678.896 725.961L670.234 720.678L661.642 689.129C661.642 689.129 629.207 658.158 635.572 624.915L666.862 648.078L692.282 699.997L678.896 725.961Z" fill="#00A9D4"></path> <path d="M719.915 877.054C721.451 880.129 720.271 886.357 718.465 893.303C715.213 900.052 708.578 898.229 702.664 898.04C697.736 897.884 693.613 899.155 689.337 900.425C683.693 902.095 677.772 903.774 669.375 902.173C660.599 900.498 655.101 897.516 654.307 891.606C654.517 888.994 656.507 886.672 660.119 884.617C660.119 884.617 681.939 879.402 682.522 879.149C683.105 878.901 693.368 874.014 693.673 873.35C693.978 872.694 700.185 857.878 700.185 857.878L721.868 861.974L719.916 877.053L719.915 877.054Z" fill="black"></path> <path d="M751.926 909.977C753.645 916.584 753.967 918.496 752.88 923.274C751.796 925.785 750.762 926.887 749.54 930.36C748.081 934.658 747.927 941.949 741.235 945.992C733.22 951.731 718.265 951.298 713.879 944.568C714.029 941.394 716.464 934.481 720.651 928.998L728.913 915.26L729.056 902.02L751.069 898.276L751.927 909.977H751.926Z" fill="black"></path> <path d="M725.952 706.564L709.537 793.499C711.768 820.024 720.766 846.229 718.153 871.828C716.15 882.435 694.218 880.701 690.072 872.859C691.62 852.954 680.129 823.375 675.935 790.687C675.172 758.376 675.761 725.127 682.506 699.531L725.952 706.563V706.564Z" fill="#30485C"></path> <path d="M725.952 706.564L709.537 793.499C711.768 820.024 720.766 846.229 718.153 871.828C716.15 882.435 694.218 880.701 690.072 872.859C691.62 852.954 680.129 823.375 675.935 790.687C675.172 758.376 675.761 725.127 682.506 699.531L725.952 706.563V706.564Z" fill="#004759"></path> <path d="M705.27 879.266C698.912 879.266 692.183 876.855 690.072 872.861C690.169 871.619 690.213 870.335 690.213 869.019C690.213 849.251 679.868 821.334 675.935 790.688C675.776 783.995 675.676 777.267 675.676 770.574C675.68 748.346 676.791 726.518 680.57 707.878L681.492 709.632C681.551 709.657 681.609 709.68 681.665 709.705C682.637 720.171 693.019 741.193 705.362 751.509C705.071 770.733 705.977 804.123 708.18 825.96C711.955 839.77 715.576 853.334 718.561 865.888C718.488 867.87 718.355 869.852 718.153 871.83C717.172 877.032 711.388 879.266 705.268 879.266H705.27Z" fill="#002D3C"></path> <path d="M681.66 706.933C680.61 715.911 691.797 740.175 705.364 751.507C705.072 770.732 705.978 804.121 708.181 825.959C716.873 857.743 724.721 888.182 725.927 908.102C729.388 912.897 740.266 915.213 747.267 912.983C747.829 912.816 748.262 912.674 748.666 912.464L749.139 912.255C751.621 911.034 753.337 909.016 753.474 906.099C754.496 880.907 751.107 855.24 745.212 829.267L750.634 740.533C755.677 728.52 758.495 714.543 752.893 693.153L746.922 694.307L681.66 706.931V706.933Z" fill="#004759"></path> <path d="M747.268 912.984C746.021 880.471 744.716 848.005 732.059 831.065C737.503 791.247 735.516 730.764 691.113 724.643L705.775 716.671C709.321 717.208 712.61 717.454 715.665 717.454C746.144 717.454 752.896 693.155 752.896 693.155C755.07 701.468 755.979 708.662 755.976 715.057C755.972 725.11 753.719 733.187 750.637 740.534L745.215 829.268C750.419 852.194 753.669 874.89 753.656 897.224C753.656 900.189 753.596 903.15 753.475 906.1C753.338 909.018 751.622 911.036 749.14 912.257L748.667 912.466C747.999 912.696 747.539 912.873 747.268 912.984Z" fill="#002D3C"></path> <path d="M637.292 636.078C643.143 668.915 668.869 685.59 668.869 685.59L674.326 695.967L681.493 709.632C741.496 734.167 752.892 693.156 752.892 693.156C748.415 649.885 719.65 636.636 719.65 636.636C708.659 618.3 687.788 607.738 687.788 607.738C621.76 578.836 637.291 636.078 637.291 636.078H637.292Z" fill="#00A9D4"></path> <path d="M715.665 717.455C706.55 717.455 695.311 715.281 681.495 709.632L674.328 695.967C691.302 692.252 696.397 664.972 696.397 664.972L712.756 669.313C720.069 691.343 742.786 693.237 750.386 693.237C751.965 693.237 752.896 693.156 752.896 693.156C752.896 693.156 746.144 717.455 715.665 717.455Z" fill="#006C8F"></path> <path d="M724.066 669.855C724.066 669.855 717.031 735.836 698.557 740.446C683.231 752.219 645.412 751.658 639.15 751.803C639.15 751.803 628.984 740.446 636.769 735.022C641.02 736.425 684.464 718.881 684.464 718.881L689.893 686.578C689.619 650.348 724.822 653.953 724.066 669.853V669.855Z" fill="#00A9D4"></path> <path d="M650.226 623.389L664.839 625.123C664.839 625.123 673.13 626.778 670.689 642.472C668.34 657.649 661.601 658.814 661.601 658.814L636.77 647.241L650.226 623.389Z" fill="#FFB294"></path> <path d="M654.377 672.092C650.071 670.999 644.863 662.516 644.863 662.516L646.202 660.414C648.788 664.905 651.618 668.797 654.377 672.092Z" fill="#008CAD"></path> <path d="M656.005 672.311C655.507 672.311 654.971 672.242 654.388 672.098C654.385 672.092 654.38 672.092 654.376 672.092C651.618 668.799 648.787 664.905 646.201 660.414L650.51 653.648L661.596 658.815C661.596 658.815 662.969 672.313 656.003 672.313L656.005 672.311Z" fill="#008CAD"></path> <path d="M661.598 658.812L650.512 653.646L653.651 648.708L661.598 658.812Z" fill="#F89479"></path> <path d="M654.46 643.479C654.46 643.479 664.706 612.352 636.772 606.567C628.864 604.927 612.357 611.192 608.759 625.959C606.507 635.206 603.595 645.659 620.195 655.504L621.031 659.74C621.186 661.97 622.288 663.113 624.068 662.683L626.128 661.878C626.128 661.878 633.162 666.81 639.166 665.469C645.166 664.115 655.71 654.671 654.46 643.479Z" fill="#FFB294"></path> <path d="M648.984 645.097L645.96 648.082C639.856 647.053 635.619 649.32 630.035 642.909C630.035 642.909 625.532 650.938 612.774 649.913C612.774 649.913 610.379 648.875 608.571 647.122C604.388 643.064 599.383 625.576 616.776 611.404C621.872 607.253 630.086 601.684 643.041 607.826C656.55 614.229 661.09 629.092 657.988 640.846C656.951 644.755 652.59 646.938 648.985 645.095L648.984 645.097Z" fill="black"></path> <path d="M644.591 643.069C645.336 640.989 647.944 639.925 650.063 640.566C652.177 641.198 653.701 643.231 654.11 645.407C654.325 646.527 654.265 647.752 653.652 648.708C652.828 649.991 651.161 650.533 649.642 650.364C646.276 649.995 643.335 646.594 644.591 643.069Z" fill="#FFB294"></path> <path d="M646.704 600.369C646.704 600.369 655.689 601.724 659.562 609.714C659.562 609.714 663.432 617.752 659.228 626.681C655.02 635.605 645.632 642.426 645.632 642.426C645.632 642.426 639.693 646.628 632.029 649.62L622.262 654.059C622.262 654.059 617.031 655.93 611.843 654.531C606.657 653.13 602.87 650.648 602.87 650.648C602.87 650.648 594.694 646.022 597.076 637.657C599.462 629.295 603.76 618.783 606.233 615.979L646.704 600.37V600.369Z" fill="#BA3800"></path> <path d="M646.46 599.317C646.46 599.317 655.446 600.674 659.314 608.66C659.314 608.66 663.184 616.699 658.978 625.629C654.776 634.555 645.382 641.37 645.382 641.37C645.382 641.37 639.446 645.578 631.786 648.567L622.019 653.008C622.019 653.008 616.785 654.878 611.599 653.48C606.41 652.078 602.628 649.598 602.628 649.598C602.628 649.598 594.449 644.971 596.832 636.605C599.212 628.245 603.516 617.733 605.99 614.923L646.46 599.317Z" fill="#E35B00"></path> <path d="M656.316 612.585C654.818 607.798 651.383 602.513 646.803 599.383C645.306 597.704 640.219 593.944 633.957 594.95L627.509 595.205C627.509 595.205 620.784 594.221 612.021 602.145C603.257 610.068 602.975 625.067 602.975 625.067C602.975 625.067 602.975 633.83 605.639 638.807C605.639 638.807 608.722 646.657 621.062 646.514C633.399 646.372 643.349 639.153 643.349 639.153C656.565 628.987 658.106 618.309 656.316 612.585Z" fill="#FF6600"></path> <path d="M650.884 604.49C645.91 612.731 630.827 627.839 619.555 636.107L650.884 604.49Z" fill="#BA3800"></path> <path d="M646.801 599.383C646.801 599.383 642.37 596.676 635.221 601.197C628.07 605.723 623.197 611.681 623.197 611.681C623.197 611.681 614.787 621.982 612.582 630.672C612.582 630.672 612.196 626.22 617.733 616.195C623.269 606.173 634.409 599.317 634.409 599.317C634.409 599.317 642.164 595.077 646.801 599.383Z" fill="#BA3800"></path> <path d="M627.507 595.205C616.802 597.691 607.094 606.935 605.01 624.713C605.01 624.713 604.924 614.124 609.376 606.979C612.889 601.336 619.383 595.616 627.507 595.205Z" fill="#BA3800"></path> <path d="M617.413 647.629L618.048 646.372L617.13 637.89C611.778 636.625 607.45 634.463 605.012 630.672L603.473 631.282L604.202 640.167C606.73 644.713 611.556 646.732 617.414 647.627L617.413 647.629Z" fill="#BA3800"></path> <path d="M603.102 623.175H601.923L601.225 627.696L602.163 630.917L603.385 630.673C602.78 628.419 602.634 625.947 603.102 623.177V623.175Z" fill="#BA3800"></path> <path d="M634.581 643.728L633.079 640.59L628.104 642.159L627.861 643.323L629.474 646.517L634.581 645.145V643.728Z" fill="#BA3800"></path> <path d="M658.77 617.143L657.231 614.059L655.617 614.372L654.988 618.298L656.271 621.72L657.981 621.277L658.77 617.143Z" fill="#BA3800"></path> <path d="M565.462 1030.51C565.462 1030.51 573.888 1028.56 579.613 1032.13C585.343 1035.7 577.996 1038.72 577.996 1038.72C577.996 1038.72 565.568 1043.16 549.797 1034.35C534.021 1025.54 537.693 1012.25 537.693 1012.25C537.693 1012.25 539.965 1000.69 554.226 996.695V1016.14C554.226 1016.14 554.425 1024.25 565.423 1031.7L565.462 1030.51Z" fill="#808080"></path> <path d="M554.224 996.693V1011.02L543.441 1002.66C545.901 1000.3 549.366 998.054 554.224 996.693Z" fill="#4D4D4D"></path> </svg> 